2000 0 1 0           
18 SESAM - gmGeometry 14 ACIS 33.0.1 NT 24 Sun Sep 15 18:46:40 2024 
1000 9.9999999999999995e-07 1e-10 
-0 body $-1 -1 -1 $-1 $1 $-1 $-1 F #
-1 lump $-1 -1 -1 $-1 $-1 $2 $0 F #
-2 shell $-1 -1 -1 $-1 $-1 $-1 $3 $-1 $1 T 18.899999999961498 -33.500000000038504 3.3288582232938371 28.91500000001993 -30.346232693111922 3.9000000000385033 #
-3 face $4 -1 -1 $-1 $5 $6 $2 $-1 $7 forward double out T 18.899999999961498 -33.500000000038504 3.8999999999611696 22.238333333371802 -31.550000000000001 3.9000000000385033 F #
-4 string_attrib-name_attrib-gen-attrib $-1 -1 $8 $-1 $3 2 1 1 1 1 1 1 1 1 1 1 1 1 1 0 1 1 1 @6 dnvscp @12 FACE00000001 #
-5 face $9 -1 -1 $-1 $10 $11 $2 $-1 $12 forward double out T 25.576666666646769 -30.978858223361371 3.3288582232938371 28.91500000001993 -30.346232693111922 3.75156508839701 T 0.39269908169872425 0.96947475047953635 -3.3383333333332992 0 #
-6 loop $-1 -1 -1 $-1 $-1 $13 $3 T 18.899999999961498 -33.500000000038504 3.8999999999611696 22.238333333371802 -31.550000000000001 3.9000000000385033 periphery $7 F #
-7 plane-surface $-1 -1 -1 $-1 20.56916666666665 -32.525000000000006 3.9000000000000008 1.9537240486347949e-17 -8.4976886691514912e-18 -1 -1 0 -1.9537240486347949e-17 reverse_v I I I I #
-8 position_attrib-name_attrib-gen-attrib $-1 -1 $14 $4 $3 2 0 0 0 1 1 1 1 1 1 1 1 1 1 0 1 1 1 @12 ExactBoxHigh 22.238333333333301 -31.550000000000001 3.9000000000000012 #
-9 string_attrib-name_attrib-gen-attrib $-1 -1 $15 $-1 $5 2 1 1 1 1 1 1 1 1 1 1 1 1 1 0 1 1 1 @6 dnvscp @12 FACE00000002 #
-10 face $16 -1 -1 $-1 $-1 $17 $2 $-1 $18 forward double out T 22.238333333333301 -33.5 3.3288582233137687 25.576666666666707 -30.346232693111926 3.9000000000000012 T 0.39269908169872425 1.0890486225480864 -3.8870107837834826 0 #
-11 loop $-1 -1 -1 $-1 $-1 $19 $5 T 25.576666666646769 -30.978858223361371 3.3288582232938371 28.91500000001993 -30.346232693111926 3.75156508839701 periphery $12 F #
-12 spline-surface $-1 -1 -1 $-1 reversed { exactsur full nurbs 3 3 both open open none none 2 2 
	0.39269908169872425 3 0.96947475047953635 3 
	-3.3383333333332992 3 0 3 
	28.914999999999999 -30.978858223313768 3.3288582233137691 1 
	28.914999999999996 -30.767983046579822 3.4697605116748491 1 
	28.914999999999996 -30.557107869845872 3.61066280003593 1 
	28.914999999999999 -30.346232693111926 3.75156508839701 1 
	27.80222222222223 -30.978858223313765 3.3288582233137687 1 
	27.811765956918482 -30.77763737282001 3.4832304408153103 0.99573006231182992 
	27.811765956918482 -30.565857910980366 3.6247369531666012 0.99573006231182992 
	27.80222222222223 -30.346232693111922 3.75156508839701 1 
	26.689444444444469 -30.978858223313765 3.3288582233137687 1 
	26.699029281300508 -30.787374855952621 3.4968163922882187 0.99146012462366007 
	26.699029281300508 -30.574683320008095 3.6389323330725887 0.99146012462366007 
	26.689444444444469 -30.346232693111922 3.75156508839701 1 
	25.5766666666667 -30.978858223313768 3.3288582233137687 1 
	25.576666666666689 -30.797196575024266 3.5105198716032615 0.98719018693549032 
	25.576666666666689 -30.583585074905365 3.653250512796606 0.98719018693549032 
	25.5766666666667 -30.346232693111926 3.75156508839701 1 
	0 
	0 
	0 
	0 
	0 
	0 
	0 
	F 1 F 0 F 1 F 0 } I I I I #
-13 coedge $-1 -1 -1 $-1 $20 $21 $22 $23 reversed $6 $-1 #
-14 position_attrib-name_attrib-gen-attrib $-1 -1 $24 $8 $3 2 0 0 0 1 1 1 1 1 1 1 1 1 1 0 1 1 1 @11 ExactBoxLow 18.899999999999999 -33.5 3.9000000000000012 #
-15 position_attrib-name_attrib-gen-attrib $-1 -1 $25 $9 $5 2 0 0 0 1 1 1 1 1 1 1 1 1 1 0 1 1 1 @12 ExactBoxHigh 28.914999999999999 -30.346232693111926 3.75156508839701 #
-16 string_attrib-name_attrib-gen-attrib $-1 -1 $26 $-1 $10 2 1 1 1 1 1 1 1 1 1 1 1 1 1 0 1 1 1 @6 dnvscp @12 FACE00000003 #
-17 loop $-1 -1 -1 $-1 $-1 $27 $10 T 22.238333333333301 -33.5 3.3288582233137687 25.5766666666667 -30.346232693111926 3.9000000000000012 periphery $18 F #
-18 spline-surface $-1 -1 -1 $-1 reversed { exactsur full nurbs 2 3 both open open none none 2 2 
	0.39269908169872425 2 1.0890486225480864 2 
	-3.8870107837834826 3 0 3 
	25.5766666666667 -30.978858223313768 3.3288582233137687 1 
	25.576666666666707 -30.704586269833527 3.6031301767940196 0.9807852804032352 
	25.5766666666667 -30.346232693111926 3.75156508839701 1 
	24.463888888888899 -31.819238815542512 3.5192388155425132 1 
	24.449449447022157 -31.319264763149835 3.7033708487991941 0.9871901869354901 
	24.463888888888899 -30.747488462074614 3.801043392264674 1 
	23.351111111111098 -32.659619407771267 3.7096194077712568 1 
	23.336764748685003 -31.92601858307966 3.8023191792073847 0.99359509346774511 
	23.351111111111098 -31.148744231037305 3.8505216961323372 1 
	22.238333333333301 -33.5 3.9000000000000012 1 
	22.238333333333301 -32.524999999999999 3.9000000000000012 1 
	22.238333333333301 -31.550000000000001 3.9000000000000012 1 
	0 
	0 
	0 
	0 
	0 
	0 
	0 
	F 1 F 0 F 1 F 0 } I I I I #
-19 coedge $-1 -1 -1 $-1 $28 $29 $-1 $30 reversed $11 $31 #
-20 coedge $-1 -1 -1 $-1 $32 $13 $-1 $33 reversed $6 $-1 #
-21 coedge $-1 -1 -1 $-1 $13 $32 $-1 $34 forward $6 $-1 #
-22 coedge $-1 -1 -1 $-1 $35 $36 $13 $23 forward $17 $37 #
-23 edge $-1 -1 -1 $-1 $38 0 $39 1.9499999999999993 $22 $40 forward @7 unknown T 22.238333333333301 -33.5 3.9000000000000012 22.238333333333301 -31.550000000000001 3.9000000000000012 #
-24 CachedPlaneAttribute-DNV-attrib $-1 -1 $-1 $14 $3 1 1 1 1 1 1 1 1 1 1 1 1 0 1 0 1 1 1 20.56916666666665 -32.525000000000006 3.9000000000000008 1.9537240486347949e-17 -8.4976886691514912e-18 -1 1 #
-25 position_attrib-name_attrib-gen-attrib $-1 -1 $41 $15 $5 2 0 0 0 1 1 1 1 1 1 1 1 1 1 0 1 1 1 @11 ExactBoxLow 25.5766666666667 -30.978858223313768 3.3288582233137687 #
-26 position_attrib-name_attrib-gen-attrib $-1 -1 $42 $16 $10 2 0 0 0 1 1 1 1 1 1 1 1 1 1 0 1 1 1 @12 ExactBoxHigh 25.576666666666711 -30.346232693111926 3.9000000000000026 #
-27 coedge $-1 -1 -1 $-1 $36 $35 $43 $44 reversed $17 $45 #
-28 coedge $-1 -1 -1 $-1 $43 $19 $-1 $46 reversed $11 $47 #
-29 coedge $-1 -1 -1 $-1 $19 $43 $-1 $48 forward $11 $49 #
-30 edge $-1 -1 -1 $-1 $50 0 $51 0.76085225586289984 $19 $52 forward @7 unknown T 28.914999999999999 -30.978858223313768 3.3288582233137691 28.914999999999999 -30.346232693111926 3.75156508839701 #
-31 pcurve $-1 -1 -1 $-1 0 reversed { exppc nubs 1 open 2 
	0 1 0.76085225586289984 1 
	0.39269908169872425 -3.3383333333332992 
	0.96947475047953635 -3.3383333333332992 
	0 
	-1 
	spline reversed { ref 0 } I I I I 
	} 0 0 #
-32 coedge $-1 -1 -1 $-1 $21 $20 $-1 $53 forward $6 $-1 #
-33 edge $-1 -1 -1 $-1 $54 11.500000000000025 $38 14.838333333333274 $20 $55 forward @7 unknown T 18.899999999961498 -33.500000000038504 3.8999999999611696 22.238333333371802 -33.499999999898243 3.9000000000385033 #
-34 edge $-1 -1 -1 $-1 $56 0 $39 3.3383333333333027 $21 $57 forward @7 unknown T 18.899999999999999 -31.550000000000001 3.9000000000000012 22.238333333333301 -31.550000000000001 3.9000000000000012 #
-35 coedge $-1 -1 -1 $-1 $27 $22 $-1 $58 forward $17 $59 #
-36 coedge $-1 -1 -1 $-1 $22 $27 $-1 $60 reversed $17 $61 #
-37 pcurve $-1 -1 -1 $-1 0 reversed { exppc nubs 1 open 2 
	-1.9499999999999993 1 0 1 
	1.0890486225480864 0 
	0.39269908169872425 0 
	0 
	-1 
	spline reversed { ref 1 } I I I I 
	} 0 0 #
-38 vertex $-1 -1 -1 $-1 $33 $62 #
-39 vertex $-1 -1 -1 $-1 $23 $63 #
-40 straight-curve $-1 -1 -1 $-1 22.238333333333301 -33.5 3.9000000000000012 0 1 0 I I #
-41 CachedPlaneAttribute-DNV-attrib $-1 -1 $-1 $25 $5 1 1 1 1 1 1 1 1 1 1 1 1 0 1 0 1 1 1 1 1.3800416928041732e-311 0 2.1322330470336301 4.9406564584124654e-324 -1.000000000000002 0 #
-42 position_attrib-name_attrib-gen-attrib $-1 -1 $64 $26 $10 2 0 0 0 1 1 1 1 1 1 1 1 1 1 0 1 1 1 @11 ExactBoxLow 22.238333333333301 -33.5 3.3288582233137687 #
-43 coedge $-1 -1 -1 $-1 $29 $28 $27 $44 forward $11 $65 #
-44 edge $-1 -1 -1 $-1 $66 0.7853981633974485 $67 1.1780972450961724 $43 $68 forward @7 unknown T 25.5766666666667 -30.978858223313768 3.3288582233137687 25.5766666666667 -30.346232693111926 3.75156508839701 #
-45 pcurve $-1 -1 -1 $-1 0 reversed { exppc nubs 1 open 2 
	0.7853981633974485 1 1.1780972450961724 1 
	0.39269908169872425 -3.8870107837834826 
	1.0890486225480864 -3.8870107837834826 
	0.001 
	-1 
	spline reversed { ref 1 } I I I I 
	} 0 0 #
-46 edge $-1 -1 -1 $-1 $66 0 $50 3.3383333333333027 $28 $69 forward @7 unknown T 25.576666666646769 -30.978858223361371 3.3288582232938371 28.91500000001993 -30.978858223293837 3.328858223336665 #
-47 pcurve $-1 -1 -1 $-1 0 reversed { exppc nubs 1 open 2 
	2.2204460492503131e-16 1 3.3383333333333027 1 
	0.39269908169872425 0 
	0.39269908169872425 -3.3383333333332992 
	0 
	-1 
	spline reversed { ref 0 } I I I I 
	} 0 0 #
-48 edge $-1 -1 -1 $-1 $67 0 $51 3.3383333333332992 $29 $70 forward @7 unknown T 25.5766666666667 -30.346232693111926 3.75156508839701 28.914999999999999 -30.346232693111926 3.75156508839701 #
-49 pcurve $-1 -1 -1 $-1 0 reversed { exppc nubs 1 open 2 
	-3.3383333333332992 1 -0 1 
	0.96947475047953635 -3.3383333333332992 
	0.96947475047953635 0 
	0 
	-1 
	spline reversed { ref 0 } I I I I 
	} 0 0 #
-50 vertex $-1 -1 -1 $-1 $30 $71 #
-51 vertex $-1 -1 -1 $-1 $30 $72 #
-52 intcurve-curve $-1 -1 -1 $-1 forward { exactcur full nubs 3 open 2 
	0 3 0.76085225586289984 3 
	28.914999999999999 -30.978858223313768 3.3288582233137691 
	28.914999999999999 -30.767983046579822 3.4697605116748491 
	28.914999999999999 -30.557107869845872 3.6106628000359295 
	28.914999999999999 -30.346232693111926 3.75156508839701 
	0 
	null_surface 
	null_surface 
	nullbs 
	nullbs 
	-1 
	-1 
	I I 
	0 
	0 
	0 
	
	-1 
	none F F 1 F 0 } I I #
-53 edge $-1 -1 -1 $-1 $54 0 $56 1.9499999999999993 $32 $73 forward @7 unknown T 18.899999999999999 -33.5 3.9000000000000012 18.899999999999999 -31.550000000000001 3.9000000000000012 #
-54 vertex $-1 -1 -1 $-1 $53 $74 #
-55 intcurve-curve $-1 -1 -1 $-1 forward { lawintcur full nubs 3 open 5 
	0 3 4.6750000000000007 1 7.6000000000000352 1 10.524999999999991 1 14.838333333333274 3 
	7.3999999999999995 -33.5 3.9000000000000004 
	8.9583333333453865 -33.5 3.8999999999997699 
	11.49166666666224 -33.5 3.9000000000000723 
	15.000000000003293 -33.5 3.8999999999999861 
	18.387777777781444 -33.500000000027711 3.9000000000001513 
	20.800555555546971 -33.499999999918273 3.8999999999995754 
	22.238333333333301 -33.5 3.9000000000000012 
	3.8501911934287391e-11 
	null_surface 
	null_surface 
	nullbs 
	nullbs 
	-1 
	-1 
	I I 
	0 
	5 3.6999999999999993 5.6500000000000012 7.6000000000000352 9.5499999999999936 11.499999999999989 
	0 
	
	-1 
	none F @106 MULTI_CUR(PDOMAIN(CUR(EDGE1),0,3.699999999999999),PDOMAIN(CUR(EDGE2),3.699999999999999,14.83833333333327)) 
	2 
	@4 EDGE 
	intcurve forward { exactcur full nubs 3 open 2 
	0 3 3.6999999999999993 3 
	7.3999999999999995 -33.5 3.9000000000000004 
	8.6333333333333329 -33.5 3.9000000000000004 
	9.8666666666666671 -33.5 3.9000000000000004 
	11.1 -33.5 3.9000000000000004 
	0 
	null_surface 
	null_surface 
	nullbs 
	nullbs 
	-1 
	-1 
	I I 
	0 
	0 
	0 
	
	-1 
	none F F 1 F 0 } F 0 F 3.6999999999999993 
	0 
	3.6999999999999993 @4 EDGE 
	intcurve forward { lawintcur full nubs 3 open 5 
	3.6999999999999993 3 6.6250000000000178 1 9.5499999999999936 1 11.499999999999989 1 14.838333333333274 3 
	11.1 -33.5 3.9000000000000004 
	12.075000000004083 -33.5 3.899999999999423 
	14.025000000000503 -33.499999999999567 3.900000000000289 
	16.625000000001585 -33.500000000000362 3.8999999999999524 
	19.362777777779712 -33.500000000018645 3.900000000000114 
	21.12555555554891 -33.499999999936747 3.8999999999996717 
	22.238333333333301 -33.5 3.9000000000000012 
	2.9731313917106292e-11 
	null_surface 
	null_surface 
	nullbs 
	nullbs 
	-1 
	-1 
	I I 
	0 
	4 5.6500000000000012 7.6000000000000352 9.5499999999999936 11.499999999999989 
	0 
	
	-1 
	none F @150 (MULTI_CUR(PDOMAIN(CUR(EDGE1),0,5.849999999999992),PDOMAIN(CUR(EDGE2),5.849999999999992,11.13833333333327)))O(0.9999999999999996*X+-3.699999999999998) 
	2 
	@4 EDGE 
	intcurve forward { lawintcur full nubs 3 open 3 
	0 3 2.9250000000000176 1 5.8499999999999917 3 
	11.1 -33.5 3.9000000000000004 
	12.075000000006392 -33.499999999993072 3.899999999999423 
	14.0249999999974 -33.500000000003467 3.899999999999928 
	15.974999999998817 -33.5 3.9000000000007224 
	16.949999999999999 -33.5 3.9000000000000008 
	4.8155612842463946e-12 
	null_surface 
	null_surface 
	nullbs 
	nullbs 
	-1 
	-1 
	I I 
	0 
	2 1.9500000000000011 3.9000000000000337 
	0 
	
	-1 
	none F @116 (MULTI_CUR(PDOMAIN(CUR(EDGE1),0,1.950000000000001),PDOMAIN(CUR(EDGE2),1.950000000000001,5.849999999999992)))O(1*X+0) 
	2 
	@4 EDGE 
	intcurve forward { exactcur full nubs 3 open 2 
	0 3 1.9500000000000011 3 
	11.1 -33.5 3.9000000000000004 
	11.75 -33.5 3.9000000000000004 
	12.4 -33.5 3.9000000000000004 
	13.050000000000001 -33.5 3.9000000000000004 
	0 
	null_surface 
	null_surface 
	nullbs 
	nullbs 
	-1 
	-1 
	I I 
	0 
	0 
	0 
	
	-1 
	none F F 1 F 0 } F 0 F 1.9500000000000011 
	0 
	1.9500000000000011 @4 EDGE 
	intcurve forward { lawintcur full nubs 3 open 3 
	1.9500000000000011 3 3.9000000000000337 1 5.8499999999999917 3 
	13.050000000000001 -33.5 3.9000000000000004 
	13.700000000000808 -33.5 3.8999999999996153 
	15.000000000000778 -33.499999999997691 3.8999999999999524 
	16.299999999997677 -33.500000000004619 3.9000000000004817 
	16.949999999999999 -33.5 3.9000000000000008 
	2.6468131560938621e-12 
	null_surface 
	null_surface 
	nullbs 
	nullbs 
	-1 
	-1 
	I I 
	0 
	1 3.9000000000000337 
	0 
	
	-1 
	none F @149 (MULTI_CUR(PDOMAIN(CUR(EDGE1),0,1.950000000000037),PDOMAIN(CUR(EDGE2),1.950000000000037,3.899999999999999)))O(1.000000000000002*X+-1.950000000000005) 
	2 
	@4 EDGE 
	intcurve forward { exactcur full nubs 3 open 2 
	0 3 3.8999999999999986 3 
	13.050000000000001 -33.5 3.9000000000000004 
	14.349999999999998 -33.5 3.9000000000000004 
	15.649999999999999 -33.5 3.9000000000000008 
	16.949999999999999 -33.5 3.9000000000000008 
	0 
	null_surface 
	null_surface 
	nullbs 
	nullbs 
	-1 
	-1 
	I I 
	0 
	0 
	0 
	
	-1 
	none F F 1 F 0 } F 0 F 1.9500000000000366 
	0 
	1.9500000000000366 @4 EDGE 
	intcurve forward { exactcur full nubs 3 open 2 
	0 3 3.8999999999999986 3 
	13.050000000000001 -33.5 3.9000000000000004 
	14.349999999999998 -33.5 3.9000000000000004 
	15.649999999999999 -33.5 3.9000000000000008 
	16.949999999999999 -33.5 3.9000000000000008 
	0 
	null_surface 
	null_surface 
	nullbs 
	nullbs 
	-1 
	-1 
	I I 
	0 
	0 
	0 
	
	-1 
	none F F 1 F 0 } F 1.9500000000000366 F 3.8999999999999986 
	1.9500000000000366 
	3.8999999999999986 
	1 @80 (0.999999999999998*X+1.950000000000001)O(MULTI_CURVEPERP(CUR(EDGE1),CUR(EDGE2))) 
	2 
	@4 EDGE 
	intcurve forward { ref 14 } F 0 F 1.9500000000000366 
	0 
	1.9500000000000366 @4 EDGE 
	intcurve forward { ref 15 } F 1.9500000000000366 F 3.8999999999999986 
	1.9500000000000366 
	3.8999999999999986 } F 1.9500000000000011 F 5.8499999999999917 
	1.9500000000000011 
	5.8499999999999917 
	1 @49 (1*X+-0)O(MULTI_CURVEPERP(CUR(EDGE1),CUR(EDGE2))) 
	2 
	@4 EDGE 
	intcurve forward { ref 12 } F 0 F 1.9500000000000011 
	0 
	1.9500000000000011 @4 EDGE 
	intcurve forward { ref 13 } F 1.9500000000000011 F 5.8499999999999917 
	1.9500000000000011 
	5.8499999999999917 } F 0 F 5.8499999999999917 
	0 
	5.8499999999999917 @4 EDGE 
	intcurve forward { lawintcur full nubs 3 open 3 
	5.8499999999999917 3 7.7999999999999856 1 11.13833333333327 3 
	16.949999999999999 -33.5 3.9000000000000008 
	17.600000000005412 -33.499999999995381 3.9000000000004817 
	19.362777777773523 -33.500000000003951 3.8999999999996859 
	21.125555555554175 -33.5 3.8999999999996717 
	22.238333333333301 -33.5 3.9000000000000012 
	3.5850834251388721e-12 
	null_surface 
	null_surface 
	nullbs 
	nullbs 
	-1 
	-1 
	I I 
	0 
	1 7.7999999999999856 
	0 
	
	-1 
	none F @149 (MULTI_CUR(PDOMAIN(CUR(EDGE1),0,1.949999999999999),PDOMAIN(CUR(EDGE2),1.949999999999999,5.288333333333293)))O(1.000000000000003*X+-5.850000000000009) 
	2 
	@4 EDGE 
	intcurve forward { exactcur full nubs 3 open 2 
	0 3 1.9499999999999993 3 
	16.949999999999999 -33.5 3.9000000000000008 
	17.599999999999998 -33.5 3.9000000000000008 
	18.249999999999996 -33.5 3.9000000000000012 
	18.899999999999999 -33.5 3.9000000000000012 
	0 
	null_surface 
	null_surface 
	nullbs 
	nullbs 
	-1 
	-1 
	I I 
	0 
	0 
	0 
	
	-1 
	none F F 1 F 0 } F 0 F 1.9499999999999993 
	0 
	1.9499999999999993 @4 EDGE 
	intcurve forward { exactcur full nubs 3 open 2 
	1.9499999999999993 3 5.2883333333332931 3 
	18.899999999999999 -33.5 3.9000000000000012 
	20.012777777777767 -33.5 3.9000000000000012 
	21.125555555555533 -33.5 3.9000000000000012 
	22.238333333333301 -33.5 3.9000000000000012 
	0 
	null_surface 
	null_surface 
	nullbs 
	nullbs 
	-1 
	-1 
	I I 
	0 
	0 
	0 
	
	-1 
	none F F 1 F 0 } F 1.9499999999999993 F 5.2883333333332931 
	1.9499999999999993 
	5.2883333333332931 
	1 @81 (0.9999999999999971*X+5.849999999999992)O(MULTI_CURVEPERP(CUR(EDGE1),CUR(EDGE2))) 
	2 
	@4 EDGE 
	intcurve forward { ref 17 } F 0 F 1.9499999999999993 
	0 
	1.9499999999999993 @4 EDGE 
	intcurve forward { ref 18 } F 1.9499999999999993 F 5.2883333333332931 
	1.9499999999999993 
	5.2883333333332931 } F 5.8499999999999917 F 11.13833333333327 
	5.8499999999999917 
	11.13833333333327 
	1 @64 (1*X+3.699999999999999)O(MULTI_CURVEPERP(CUR(EDGE1),CUR(EDGE2))) 
	2 
	@4 EDGE 
	intcurve forward { ref 11 } F 0 F 5.8499999999999917 
	0 
	5.8499999999999917 @4 EDGE 
	intcurve forward { ref 16 } F 5.8499999999999917 F 11.13833333333327 
	5.8499999999999917 
	11.13833333333327 } F 3.6999999999999993 F 14.838333333333274 
	3.6999999999999993 
	14.838333333333274 
	1 @38 MULTI_CURVEPERP(CUR(EDGE1),CUR(EDGE2)) 
	2 
	@4 EDGE 
	intcurve forward { ref 9 } F 0 F 3.6999999999999993 
	0 
	3.6999999999999993 @4 EDGE 
	intcurve forward { ref 10 } F 3.6999999999999993 F 14.838333333333274 
	3.6999999999999993 
	14.838333333333274 } I I #
-56 vertex $-1 -1 -1 $-1 $53 $75 #
-57 intcurve-curve $-1 -1 -1 $-1 forward { exactcur full nubs 3 open 2 
	0 3 3.3383333333333027 3 
	18.899999999999999 -31.550000000000001 3.9000000000000012 
	20.012777777777767 -31.550000000000001 3.9000000000000012 
	21.125555555555533 -31.550000000000001 3.9000000000000012 
	22.238333333333301 -31.550000000000001 3.9000000000000012 
	0 
	null_surface 
	null_surface 
	nullbs 
	nullbs 
	-1 
	-1 
	I I 
	0 
	0 
	0 
	
	-1 
	none F F 1 F 0 } I I #
-58 edge $-1 -1 -1 $-1 $39 0 $67 3.5518386923620331 $35 $76 forward @7 unknown T 22.238333333333301 -31.550000000000001 3.75156508839701 25.5766666666667 -30.346232693111926 3.9000000000000012 #
-59 pcurve $-1 -1 -1 $-1 0 reversed { exppc nubs 1 open 2 
	-3.5518386923620331 1 -0 1 
	1.0890486225480864 -3.8870107837834826 
	1.0890486225480864 0 
	0 
	-1 
	spline reversed { ref 1 } I I I I 
	} 0 0 #
-60 edge $-1 -1 -1 $-1 $38 0 $66 4.2221828752049326 $36 $77 forward @7 unknown T 22.238333333333301 -33.5 3.3288582233137687 25.5766666666667 -30.978858223313768 3.9000000000000012 #
-61 pcurve $-1 -1 -1 $-1 0 reversed { exppc nubs 1 open 2 
	0 1 4.2221828752049326 1 
	0.39269908169872425 0 
	0.39269908169872425 -3.8870107837834826 
	0 
	-1 
	spline reversed { ref 1 } I I I I 
	} 0 0 #
-62 point $-1 -1 -1 $-1 22.238333333333301 -33.5 3.9000000000000012 #
-63 point $-1 -1 -1 $-1 22.238333333333301 -31.550000000000001 3.9000000000000012 #
-64 CachedPlaneAttribute-DNV-attrib $-1 -1 $-1 $42 $10 1 1 1 1 1 1 1 1 1 1 1 1 0 1 0 1 1 1 0 0 0 0 0 0 0 #
-65 pcurve $-1 -1 -1 $-1 0 reversed { exppc nubs 1 open 2 
	-1.1780972450961724 1 -0.7853981633974485 1 
	0.96947475047953635 0 
	0.39269908169872425 0 
	0 
	-1 
	spline reversed { ref 0 } I I I I 
	} 0 0 #
-66 vertex $-1 -1 -1 $-1 $60 $78 #
-67 vertex $-1 -1 -1 $-1 $44 $79 #
-68 ellipse-curve $-1 -1 -1 $-1 25.5766666666667 -29.600000000000001 1.9500000000000015 -1 0 -6.123233995736766e-17 0 -1.9499999999999993 0 1 F 0.7853981633974485 F 1.1780972450961729 #
-69 intcurve-curve $-1 -1 -1 $-1 forward { lawintcur full nubs 3 open 7 
	0 3 5.0074999999999488 1 10.01499999999999 1 15.022499999999921 1 20.029999999999951 1 
	23.368333333333229 1 26.706666666666511 3 
	25.5766666666667 -30.978858223313768 3.3288582233137687 
	27.245833333331436 -30.978858223355278 3.3288582233182162 
	30.584166666679543 -30.978858223293013 3.3288582233114989 
	35.591666666667436 -30.978858223315619 3.328858223314314 
	40.599166666663578 -30.97885822331164 3.3288582233135866 
	45.050277777782114 -30.978858223314123 3.3288582233137847 
	48.94500000000226 -30.978858223310404 3.328858223312944 
	51.170555555552866 -30.978858223320358 3.3288582233154176 
	52.283333333333303 -30.978858223313768 3.3288582233137705 
	1.99317146072795e-11 
	null_surface 
	null_surface 
	nullbs 
	nullbs 
	-1 
	-1 
	I I 
	0 
	7 3.3383333333332992 6.6766666666665975 10.01499999999999 13.353333333333278 16.691666666666563 20.029999999999951 23.368333333333229 
	0 
	
	-1 
	none F @106 MULTI_CUR(PDOMAIN(CUR(EDGE1),0,6.676666666666597),PDOMAIN(CUR(EDGE2),6.676666666666597,26.70666666666651)) 
	2 
	@4 EDGE 
	intcurve forward { lawintcur full nubs 3 open 3 
	0 3 3.3383333333332992 1 6.6766666666665975 3 
	25.5766666666667 -30.978858223313768 3.3288582233137687 
	26.689444444453734 -30.97885822334144 3.3288582233167339 
	28.914999999999335 -30.978858223286096 3.3288582233110513 
	31.140555555547586 -30.97885822334144 3.32885822331624 
	32.253333333333302 -30.978858223313768 3.3288582233137691 
	1.3351121469377797e-11 
	null_surface 
	null_surface 
	nullbs 
	nullbs 
	-1 
	-1 
	I I 
	0 
	1 3.3383333333332992 
	0 
	
	-1 
	none F @116 (MULTI_CUR(PDOMAIN(CUR(EDGE1),0,3.338333333333299),PDOMAIN(CUR(EDGE2),3.338333333333299,6.676666666666597)))O(1*X+0) 
	2 
	@4 EDGE 
	intcurve forward { exactcur full nubs 3 open 2 
	0 3 3.3383333333332992 3 
	25.5766666666667 -30.978858223313768 3.3288582233137687 
	26.689444444444465 -30.978858223313768 3.3288582233137687 
	27.80222222222223 -30.978858223313768 3.3288582233137687 
	28.914999999999999 -30.978858223313768 3.3288582233137691 
	0 
	spline reversed { exactsur full nurbs 3 3 both open open none none 2 2 
	0.1963495408493619 3 0.77312520963017484 3 
	-3.3383333333332992 3 0 3 
	28.914999999999999 -31.40156508839701 2.6962326931119258 1 
	28.914999999999996 -31.260662800035934 2.9071078698458734 1 
	28.914999999999996 -31.119760511674848 3.1179830465798215 1 
	28.914999999999999 -30.978858223313768 3.3288582233137691 1 
	27.80222222222223 -31.40156508839701 2.6962326931119258 1 
	27.81176595691851 -31.274736953166613 2.9158579109803586 0.99573006231182037 
	27.81176595691851 -31.133230440815307 3.127637372819998 0.9957300623118206 
	27.80222222222223 -30.978858223313765 3.3288582233137687 1 
	26.689444444444469 -31.401565088397014 2.6962326931119258 1 
	26.699029281300529 -31.288932333072591 2.9246833200080857 0.99146012462364097 
	26.699029281300529 -31.146816392288219 3.137374855952606 0.99146012462364108 
	26.689444444444469 -30.978858223313765 3.3288582233137687 1 
	25.5766666666667 -31.40156508839701 2.6962326931119254 1 
	25.576666666666704 -31.303250512796609 2.9335850749053716 0.98719018693546157 
	25.576666666666704 -31.160519871603263 3.1471965750242785 0.98719018693546168 
	25.5766666666667 -30.978858223313768 3.3288582233137687 1 
	0 
	0 
	0 
	0 
	0 
	0 
	0 
	F 1 F 0 F 1 F 0 } I I I I 
	null_surface 
	nullbs 
	nullbs 
	-1 
	-1 
	I I 
	0 
	0 
	0 
	
	-1 
	none F F 1 F 0 } F 0 F 3.3383333333332992 
	0 
	3.3383333333332992 @4 EDGE 
	intcurve forward { exactcur full nubs 3 open 2 
	3.3383333333332992 3 6.6766666666665975 3 
	28.914999999999999 -30.978858223313768 3.3288582233137691 
	30.027777777777768 -30.978858223313768 3.3288582233137691 
	31.14055555555554 -30.978858223313768 3.3288582233137691 
	32.253333333333302 -30.978858223313768 3.3288582233137691 
	0 
	spline reversed { exactsur full nurbs 3 3 both open open none none 2 2 
	0.1963495408493619 3 0.77312520963017484 3 
	-3.3383333333333063 3 0 3 
	32.253333333333302 -31.40156508839701 2.6962326931119263 1 
	32.253333333333302 -31.303250512796609 2.933585074905372 0.98719018693546157 
	32.253333333333302 -31.160519871603263 3.147196575024279 0.98719018693546168 
	32.253333333333302 -30.978858223313768 3.3288582233137691 1 
	31.140555555555547 -31.401565088397014 2.6962326931119263 1 
	31.130970718699498 -31.288932333072591 2.9246833200080857 0.99146012462364097 
	31.130970718699484 -31.146816392288219 3.137374855952606 0.99146012462364108 
	31.140555555555547 -30.978858223313765 3.3288582233137687 1 
	30.027777777777768 -31.40156508839701 2.6962326931119263 1 
	30.018234043081506 -31.274736953166613 2.9158579109803591 0.99573006231182037 
	30.018234043081506 -31.133230440815307 3.127637372819998 0.9957300623118206 
	30.027777777777768 -30.978858223313765 3.3288582233137687 1 
	28.914999999999999 -31.40156508839701 2.6962326931119258 1 
	28.914999999999996 -31.260662800035934 2.9071078698458734 1 
	28.914999999999996 -31.119760511674848 3.1179830465798215 1 
	28.914999999999999 -30.978858223313768 3.3288582233137691 1 
	0 
	0 
	0 
	0 
	0 
	0 
	0 
	F 1 F 0 F 1 F 0 } I I I I 
	null_surface 
	nullbs 
	nullbs 
	-1 
	-1 
	I I 
	0 
	0 
	0 
	
	-1 
	none F F 1 F 0 } F 3.3383333333332992 F 6.6766666666665975 
	3.3383333333332992 
	6.6766666666665975 
	1 @49 (1*X+-0)O(MULTI_CURVEPERP(CUR(EDGE1),CUR(EDGE2))) 
	2 
	@4 EDGE 
	intcurve forward { ref 25 } F 0 F 3.3383333333332992 
	0 
	3.3383333333332992 @4 EDGE 
	intcurve forward { ref 27 } F 3.3383333333332992 F 6.6766666666665975 
	3.3383333333332992 
	6.6766666666665975 } F 0 F 6.6766666666665975 
	0 
	6.6766666666665975 @4 EDGE 
	intcurve forward { lawintcur full nubs 3 open 5 
	6.6766666666665975 3 11.684166666666634 1 16.691666666666563 1 21.699166666666589 1 26.706666666666511 3 
	32.253333333333302 -30.978858223313768 3.3288582233137691 
	33.922500000000042 -30.978858223355278 3.3288582233194521 
	37.260833333344912 -30.978858223293013 3.3288582233109745 
	42.268333333327647 -30.978858223318959 3.3288582233144912 
	47.275833333320563 -30.97885822330753 3.3288582233098838 
	50.614166666686366 -30.978858223323652 3.3288582233211832 
	52.283333333333303 -30.978858223313768 3.3288582233137705 
	1.9682656262139835e-11 
	null_surface 
	null_surface 
	nullbs 
	nullbs 
	-1 
	-1 
	I I 
	0 
	5 10.01499999999999 13.353333333333278 16.691666666666563 20.029999999999951 23.368333333333229 
	0 
	
	-1 
	none F @133 (MULTI_CUR(PDOMAIN(CUR(EDGE1),0,13.35333333333336),PDOMAIN(CUR(EDGE2),13.35333333333336,20.02999999999992)))O(1*X+-6.676666666666601) 
	2 
	@4 EDGE 
	intcurve forward { lawintcur full nubs 3 open 4 
	0 3 5.0075000000000394 1 10.014999999999972 1 13.35333333333336 3 
	32.253333333333302 -30.978858223313768 3.3288582233137691 
	33.922500000000042 -30.978858223355278 3.3288582233194521 
	37.260833333344912 -30.978858223293013 3.3288582233109745 
	41.711944444410847 -30.978858223296474 3.3288582233101733 
	44.493888888936297 -30.97885822334144 3.3288582233192061 
	45.606666666666698 -30.978858223313768 3.32885822331377 
	2.7898700304086894e-11 
	null_surface 
	null_surface 
	nullbs 
	nullbs 
	-1 
	-1 
	I I 
	0 
	3 3.3383333333333951 6.6766666666666836 10.014999999999972 
	0 
	
	-1 
	none F @116 (MULTI_CUR(PDOMAIN(CUR(EDGE1),0,10.01499999999997),PDOMAIN(CUR(EDGE2),10.01499999999997,13.35333333333336)))O(1*X+0) 
	2 
	@4 EDGE 
	intcurve forward { lawintcur full nubs 3 open 3 
	0 3 5.0075000000000394 1 10.014999999999972 3 
	32.253333333333302 -30.978858223313768 3.3288582233137691 
	33.922499999968416 -30.978858223323652 3.3288582233135222 
	37.260833333343186 -30.978858223335511 3.3288582233133992 
	40.599166666678457 -30.978858223260399 3.3288582233147581 
	42.268333333333302 -30.978858223313768 3.3288582233137696 
	2.8695871147894717e-11 
	null_surface 
	null_surface 
	nullbs 
	nullbs 
	-1 
	-1 
	I I 
	0 
	2 3.3383333333333951 6.6766666666666836 
	0 
	
	-1 
	none F @116 (MULTI_CUR(PDOMAIN(CUR(EDGE1),0,3.338333333333395),PDOMAIN(CUR(EDGE2),3.338333333333395,10.01499999999997)))O(1*X+0) 
	2 
	@4 EDGE 
	intcurve forward { exactcur full nubs 3 open 2 
	0 3 3.3383333333333951 3 
	32.253333333333302 -30.978858223313768 3.3288582233137691 
	33.366111111111096 -30.978858223313768 3.3288582233137696 
	34.478888888888896 -30.978858223313768 3.3288582233137696 
	35.591666666666697 -30.978858223313768 3.3288582233137696 
	0 
	spline reversed { exactsur full nurbs 2 3 both open open none none 2 2 
	0.39269908169872381 2 0.7853981633974485 2 
	-3.3383333333333951 3 0 3 
	35.591666666666697 -31.40156508839701 2.6962326931119263 1 
	35.591666666666683 -31.253130176794013 3.0545862698335187 0.98078528040319257 
	35.591666666666697 -30.978858223313768 3.3288582233137696 1 
	34.478888888888896 -31.40156508839701 2.6962326931119263 1 
	34.478888888888896 -31.253130176794023 3.0545862698335187 0.98078528040319246 
	34.478888888888896 -30.978858223313765 3.3288582233137691 1 
	33.366111111111096 -31.40156508839701 2.6962326931119263 1 
	33.366111111111096 -31.253130176794023 3.0545862698335187 0.98078528040319246 
	33.366111111111096 -30.978858223313765 3.3288582233137691 1 
	32.253333333333302 -31.40156508839701 2.6962326931119263 1 
	32.253333333333302 -31.253130176794013 3.0545862698335182 0.98078528040319257 
	32.253333333333302 -30.978858223313768 3.3288582233137691 1 
	0 
	0 
	0 
	0 
	0 
	0 
	0 
	F 1 F 0 F 1 F 0 } I I I I 
	null_surface 
	nullbs 
	nullbs 
	-1 
	-1 
	I I 
	0 
	0 
	0 
	
	-1 
	none F F 1 F 0 } F 0 F 3.3383333333333951 
	0 
	3.3383333333333951 @4 EDGE 
	intcurve forward { lawintcur full nubs 3 open 3 
	3.3383333333333951 3 6.6766666666666836 1 10.014999999999972 3 
	35.591666666666697 -30.978858223313768 3.3288582233137696 
	36.704444444433967 -30.97885822334144 3.3288582233164052 
	38.930000000022403 -30.978858223286096 3.3288582233111339 
	41.155555555521232 -30.97885822334144 3.3288582233164052 
	42.268333333333302 -30.978858223313768 3.3288582233137696 
	2.0698635860360165e-11 
	null_surface 
	null_surface 
	nullbs 
	nullbs 
	-1 
	-1 
	I I 
	0 
	1 6.6766666666666836 
	0 
	
	-1 
	none F @149 (MULTI_CUR(PDOMAIN(CUR(EDGE1),0,3.338333333333303),PDOMAIN(CUR(EDGE2),3.338333333333303,6.676666666666605)))O(1.000000000000004*X+-3.338333333333409) 
	2 
	@4 EDGE 
	intcurve forward { exactcur full nubs 3 open 2 
	0 3 3.3383333333333027 3 
	35.591666666666697 -30.978858223313768 3.3288582233137696 
	36.704444444444462 -30.978858223313768 3.3288582233137696 
	37.817222222222227 -30.978858223313768 3.3288582233137696 
	38.93 -30.978858223313768 3.3288582233137696 
	0 
	spline reversed { exactsur full nurbs 3 3 both open open none none 2 2 
	0.1963495408493619 3 0.77312520963017484 3 
	-3.3383333333333027 3 0 3 
	38.93 -31.40156508839701 2.6962326931119267 1 
	38.93 -31.260662800035934 2.9071078698458743 1 
	38.93 -31.119760511674848 3.1179830465798215 1 
	38.93 -30.978858223313768 3.3288582233137696 1 
	37.81722222222222 -31.40156508839701 2.6962326931119263 1 
	37.826765956918507 -31.274736953166613 2.9158579109803595 0.99573006231182037 
	37.826765956918507 -31.133230440815307 3.1276373728199984 0.9957300623118206 
	37.81722222222222 -30.978858223313765 3.3288582233137696 1 
	36.704444444444462 -31.401565088397014 2.6962326931119263 1 
	36.714029281300512 -31.288932333072591 2.9246833200080862 0.99146012462364097 
	36.714029281300526 -31.146816392288219 3.1373748559526065 0.99146012462364108 
	36.704444444444462 -30.978858223313765 3.3288582233137696 1 
	35.591666666666697 -31.40156508839701 2.6962326931119263 1 
	35.591666666666683 -31.303250512796609 2.9335850749053725 0.98719018693546157 
	35.591666666666697 -31.160519871603263 3.147196575024279 0.98719018693546168 
	35.591666666666697 -30.978858223313768 3.3288582233137696 1 
	0 
	0 
	0 
	0 
	0 
	0 
	0 
	F 1 F 0 F 1 F 0 } I I I I 
	null_surface 
	nullbs 
	nullbs 
	-1 
	-1 
	I I 
	0 
	0 
	0 
	
	-1 
	none F F 1 F 0 } F 0 F 3.3383333333333027 
	0 
	3.3383333333333027 @4 EDGE 
	intcurve forward { exactcur full nubs 3 open 2 
	3.3383333333333027 3 6.6766666666666055 3 
	38.93 -30.978858223313768 3.3288582233137696 
	40.042777777777772 -30.978858223313768 3.3288582233137696 
	41.155555555555537 -30.978858223313768 3.3288582233137696 
	42.268333333333302 -30.978858223313768 3.3288582233137696 
	0 
	spline reversed { exactsur full nurbs 3 3 both open open none none 2 2 
	0.1963495408493619 3 0.77312520963017484 3 
	-3.3383333333333027 3 0 3 
	42.268333333333302 -31.40156508839701 2.6962326931119267 1 
	42.268333333333302 -31.303250512796609 2.9335850749053725 0.98719018693546157 
	42.268333333333302 -31.160519871603263 3.1471965750242794 0.98719018693546168 
	42.268333333333302 -30.978858223313768 3.3288582233137696 1 
	41.155555555555544 -31.401565088397014 2.6962326931119267 1 
	41.145970718699502 -31.288932333072591 2.9246833200080866 0.99146012462364097 
	41.145970718699488 -31.146816392288219 3.1373748559526069 0.99146012462364108 
	41.155555555555544 -30.978858223313765 3.3288582233137696 1 
	40.042777777777779 -31.40156508839701 2.6962326931119267 1 
	40.033234043081528 -31.274736953166613 2.9158579109803595 0.99573006231182037 
	40.033234043081499 -31.133230440815307 3.1276373728199989 0.9957300623118206 
	40.042777777777779 -30.978858223313765 3.3288582233137696 1 
	38.93 -31.40156508839701 2.6962326931119267 1 
	38.93 -31.260662800035934 2.9071078698458743 1 
	38.93 -31.119760511674848 3.1179830465798215 1 
	38.93 -30.978858223313768 3.3288582233137696 1 
	0 
	0 
	0 
	0 
	0 
	0 
	0 
	F 1 F 0 F 1 F 0 } I I I I 
	null_surface 
	nullbs 
	nullbs 
	-1 
	-1 
	I I 
	0 
	0 
	0 
	
	-1 
	none F F 1 F 0 } F 3.3383333333333027 F 6.6766666666666055 
	3.3383333333333027 
	6.6766666666666055 
	1 @81 (0.9999999999999958*X+3.338333333333395)O(MULTI_CURVEPERP(CUR(EDGE1),CUR(EDGE2))) 
	2 
	@4 EDGE 
	intcurve forward { ref 35 } F 0 F 3.3383333333333027 
	0 
	3.3383333333333027 @4 EDGE 
	intcurve forward { ref 37 } F 3.3383333333333027 F 6.6766666666666055 
	3.3383333333333027 
	6.6766666666666055 } F 3.3383333333333951 F 10.014999999999972 
	3.3383333333333951 
	10.014999999999972 
	1 @49 (1*X+-0)O(MULTI_CURVEPERP(CUR(EDGE1),CUR(EDGE2))) 
	2 
	@4 EDGE 
	intcurve forward { ref 32 } F 0 F 3.3383333333333951 
	0 
	3.3383333333333951 @4 EDGE 
	intcurve forward { ref 34 } F 3.3383333333333951 F 10.014999999999972 
	3.3383333333333951 
	10.014999999999972 } F 0 F 10.014999999999972 
	0 
	10.014999999999972 @4 EDGE 
	intcurve forward { exactcur full nubs 3 open 2 
	10.014999999999972 3 13.35333333333336 3 
	42.268333333333302 -30.978858223313768 3.3288582233137696 
	43.381111111111096 -30.978858223313768 3.32885822331377 
	44.493888888888897 -30.978858223313768 3.32885822331377 
	45.606666666666698 -30.978858223313768 3.32885822331377 
	0 
	spline reversed { exactsur full nurbs 2 3 both open open none none 2 2 
	0.39269908169872381 2 0.7853981633974485 2 
	-3.3383333333333951 3 0 3 
	45.606666666666698 -31.40156508839701 2.6962326931119271 1 
	45.606666666666698 -31.253130176794013 3.0545862698335191 0.98078528040319257 
	45.606666666666698 -30.978858223313768 3.32885822331377 1 
	44.493888888888897 -31.40156508839701 2.6962326931119271 1 
	44.493888888888911 -31.253130176794023 3.0545862698335196 0.98078528040319246 
	44.493888888888897 -30.978858223313765 3.3288582233137696 1 
	43.381111111111096 -31.40156508839701 2.6962326931119267 1 
	43.38111111111111 -31.253130176794023 3.0545862698335196 0.98078528040319246 
	43.381111111111096 -30.978858223313765 3.3288582233137696 1 
	42.268333333333302 -31.40156508839701 2.6962326931119267 1 
	42.268333333333302 -31.253130176794013 3.0545862698335187 0.98078528040319257 
	42.268333333333302 -30.978858223313768 3.3288582233137696 1 
	0 
	0 
	0 
	0 
	0 
	0 
	0 
	F 1 F 0 F 1 F 0 } I I I I 
	null_surface 
	nullbs 
	nullbs 
	-1 
	-1 
	I I 
	0 
	0 
	0 
	
	-1 
	none F F 1 F 0 } F 10.014999999999972 F 13.35333333333336 
	10.014999999999972 
	13.35333333333336 
	1 @49 (1*X+-0)O(MULTI_CURVEPERP(CUR(EDGE1),CUR(EDGE2))) 
	2 
	@4 EDGE 
	intcurve forward { ref 31 } F 0 F 10.014999999999972 
	0 
	10.014999999999972 @4 EDGE 
	intcurve forward { ref 39 } F 10.014999999999972 F 13.35333333333336 
	10.014999999999972 
	13.35333333333336 } F 0 F 13.35333333333336 
	0 
	13.35333333333336 @4 EDGE 
	intcurve forward { lawintcur full nubs 3 open 3 
	13.35333333333336 3 16.691666666666642 1 20.029999999999923 3 
	45.606666666666698 -30.978858223313768 3.32885822331377 
	46.719444444407607 -30.97885822334144 3.3288582233159114 
	48.945000000011859 -30.978858223286096 3.3288582233118764 
	51.170555555568669 -30.97885822334144 3.3288582233154176 
	52.283333333333303 -30.978858223313768 3.3288582233137705 
	2.2989285467413673e-11 
	null_surface 
	null_surface 
	nullbs 
	nullbs 
	-1 
	-1 
	I I 
	0 
	1 16.691666666666642 
	0 
	
	-1 
	none F @149 (MULTI_CUR(PDOMAIN(CUR(EDGE1),0,3.338333333333303),PDOMAIN(CUR(EDGE2),3.338333333333303,6.676666666666605)))O(1.000000000000006*X+-13.35333333333345) 
	2 
	@4 EDGE 
	intcurve forward { exactcur full nubs 3 open 2 
	0 3 3.3383333333333027 3 
	45.606666666666698 -30.978858223313768 3.32885822331377 
	46.719444444444463 -30.978858223313768 3.32885822331377 
	47.832222222222228 -30.978858223313768 3.3288582233137705 
	48.945 -30.978858223313768 3.3288582233137705 
	0 
	spline reversed { exactsur full nurbs 3 3 both open open none none 2 2 
	0.1963495408493619 3 0.77312520963017484 3 
	-3.3383333333333027 3 0 3 
	48.945 -31.40156508839701 2.6962326931119271 1 
	48.944999999999993 -31.260662800035934 2.9071078698458748 1 
	48.944999999999993 -31.119760511674848 3.1179830465798224 1 
	48.945 -30.978858223313768 3.3288582233137705 1 
	47.832222222222228 -31.40156508839701 2.6962326931119271 1 
	47.841765956918508 -31.274736953166613 2.91585791098036 0.99573006231182037 
	47.841765956918508 -31.133230440815307 3.1276373728199989 0.9957300623118206 
	47.832222222222228 -30.978858223313765 3.32885822331377 1 
	46.71944444444447 -31.401565088397014 2.6962326931119271 1 
	46.729029281300527 -31.288932333072591 2.9246833200080866 0.99146012462364097 
	46.729029281300527 -31.146816392288219 3.1373748559526069 0.99146012462364108 
	46.71944444444447 -30.978858223313765 3.3288582233137696 1 
	45.606666666666705 -31.40156508839701 2.6962326931119267 1 
	45.60666666666669 -31.303250512796609 2.9335850749053729 0.98719018693546157 
	45.606666666666705 -31.160519871603263 3.1471965750242799 0.98719018693546168 
	45.606666666666705 -30.978858223313768 3.32885822331377 1 
	0 
	0 
	0 
	0 
	0 
	0 
	0 
	F 1 F 0 F 1 F 0 } I I I I 
	null_surface 
	nullbs 
	nullbs 
	-1 
	-1 
	I I 
	0 
	0 
	0 
	
	-1 
	none F F 1 F 0 } F 0 F 3.3383333333333027 
	0 
	3.3383333333333027 @4 EDGE 
	intcurve forward { exactcur full nubs 3 open 2 
	3.3383333333333027 3 6.6766666666666055 3 
	48.945 -30.978858223313768 3.3288582233137705 
	50.057777777777773 -30.978858223313768 3.3288582233137705 
	51.170555555555538 -30.978858223313768 3.3288582233137705 
	52.283333333333303 -30.978858223313768 3.3288582233137705 
	0 
	spline reversed { exactsur full nurbs 3 3 both open open none none 2 2 
	0.1963495408493619 3 0.77312520963017484 3 
	-3.3383333333333027 3 0 3 
	52.283333333333296 -31.40156508839701 2.6962326931119271 1 
	52.283333333333275 -31.303250512796609 2.9335850749053733 0.98719018693546157 
	52.283333333333303 -31.160519871603263 3.1471965750242799 0.98719018693546168 
	52.283333333333296 -30.978858223313768 3.3288582233137705 1 
	51.170555555555538 -31.401565088397014 2.6962326931119271 1 
	51.160970718699467 -31.288932333072591 2.9246833200080871 0.99146012462364097 
	51.160970718699481 -31.146816392288219 3.1373748559526073 0.99146012462364108 
	51.170555555555538 -30.978858223313765 3.3288582233137705 1 
	50.057777777777773 -31.40156508839701 2.6962326931119271 1 
	50.048234043081521 -31.274736953166613 2.9158579109803604 0.99573006231182037 
	50.048234043081493 -31.133230440815307 3.1276373728199989 0.9957300623118206 
	50.057777777777773 -30.978858223313765 3.32885822331377 1 
	48.945 -31.40156508839701 2.6962326931119271 1 
	48.944999999999993 -31.260662800035934 2.9071078698458748 1 
	48.944999999999993 -31.119760511674848 3.1179830465798224 1 
	48.945 -30.978858223313768 3.3288582233137705 1 
	0 
	0 
	0 
	0 
	0 
	0 
	0 
	F 1 F 0 F 1 F 0 } I I I I 
	null_surface 
	nullbs 
	nullbs 
	-1 
	-1 
	I I 
	0 
	0 
	0 
	
	-1 
	none F F 1 F 0 } F 3.3383333333333027 F 6.6766666666666055 
	3.3383333333333027 
	6.6766666666666055 
	1 @81 (0.9999999999999936*X+13.35333333333336)O(MULTI_CURVEPERP(CUR(EDGE1),CUR(EDGE2))) 
	2 
	@4 EDGE 
	intcurve forward { ref 42 } F 0 F 3.3383333333333027 
	0 
	3.3383333333333027 @4 EDGE 
	intcurve forward { ref 44 } F 3.3383333333333027 F 6.6766666666666055 
	3.3383333333333027 
	6.6766666666666055 } F 13.35333333333336 F 20.029999999999923 
	13.35333333333336 
	20.029999999999923 
	1 @81 (0.9999999999999996*X+6.676666666666598)O(MULTI_CURVEPERP(CUR(EDGE1),CUR(EDGE2))) 
	2 
	@4 EDGE 
	intcurve forward { ref 30 } F 0 F 13.35333333333336 
	0 
	13.35333333333336 @4 EDGE 
	intcurve forward { ref 41 } F 13.35333333333336 F 20.029999999999923 
	13.35333333333336 
	20.029999999999923 } F 6.6766666666665975 F 26.706666666666511 
	6.6766666666665975 
	26.706666666666511 
	1 @38 MULTI_CURVEPERP(CUR(EDGE1),CUR(EDGE2)) 
	2 
	@4 EDGE 
	intcurve forward { ref 24 } F 0 F 6.6766666666665975 
	0 
	6.6766666666665975 @4 EDGE 
	intcurve forward { ref 29 } F 6.6766666666665975 F 26.706666666666511 
	6.6766666666665975 
	26.706666666666511 } I I #
-70 intcurve-curve $-1 -1 -1 $-1 forward { exactcur full nubs 3 open 2 
	0 3 3.3383333333332992 3 
	25.5766666666667 -30.346232693111926 3.75156508839701 
	26.689444444444465 -30.346232693111926 3.75156508839701 
	27.80222222222223 -30.346232693111926 3.75156508839701 
	28.914999999999999 -30.346232693111926 3.75156508839701 
	0 
	spline reversed { ref 0 } I I I I 
	null_surface 
	nullbs 
	nullbs 
	-1 
	-1 
	I I 
	0 
	0 
	0 
	
	-1 
	none F F 1 F 0 } I I #
-71 point $-1 -1 -1 $-1 28.914999999999999 -30.978858223313768 3.3288582233137691 #
-72 point $-1 -1 -1 $-1 28.914999999999999 -30.346232693111926 3.75156508839701 #
-73 intcurve-curve $-1 -1 -1 $-1 forward { exactcur full nubs 3 open 2 
	0 3 1.9499999999999993 3 
	18.899999999999999 -33.5 3.9000000000000012 
	18.899999999999999 -32.850000000000001 3.9000000000000012 
	18.899999999999999 -32.200000000000003 3.9000000000000012 
	18.899999999999999 -31.550000000000001 3.9000000000000012 
	0 
	null_surface 
	null_surface 
	nullbs 
	nullbs 
	-1 
	-1 
	I I 
	0 
	0 
	0 
	
	-1 
	none F F 1 F 0 } I I #
-74 point $-1 -1 -1 $-1 18.899999999999999 -33.5 3.9000000000000012 #
-75 point $-1 -1 -1 $-1 18.899999999999999 -31.550000000000001 3.9000000000000012 #
-76 intcurve-curve $-1 -1 -1 $-1 forward { exactcur full nubs 3 open 2 
	0 3 3.5518386923620331 3 
	22.238333333333301 -31.550000000000001 3.9000000000000012 
	23.351111111111098 -31.148744231037309 3.8505216961323372 
	24.463888888888899 -30.747488462074617 3.8010433922646736 
	25.5766666666667 -30.346232693111926 3.75156508839701 
	0 
	spline reversed { ref 1 } I I I I 
	null_surface 
	nullbs 
	nullbs 
	-1 
	-1 
	I I 
	0 
	0 
	0 
	
	-1 
	none F F 1 F 0 } I I #
-77 intcurve-curve $-1 -1 -1 $-1 forward { exactcur full nubs 3 open 2 
	0 3 4.2221828752049326 3 
	22.238333333333301 -33.5 3.9000000000000012 
	23.351111111111098 -32.65961940777126 3.7096194077712568 
	24.463888888888899 -31.819238815542512 3.5192388155425132 
	25.5766666666667 -30.978858223313768 3.3288582233137687 
	0 
	spline reversed { exactsur full nurbs 2 3 both open open none none 2 2 
	0.1963495408493619 2 0.89269908169872414 2 
	-4.1019804822793162 3 0 3 
	25.5766666666667 -31.40156508839701 2.6962326931119258 1 
	25.5766666666667 -31.253130176794013 3.0545862698335178 0.98078528040319257 
	25.5766666666667 -30.978858223313768 3.3288582233137687 1 
	24.463888888888899 -32.101043392264671 2.8808217954079507 1 
	24.449449447022122 -32.011805270658456 3.2303084819103365 0.98719018693546168 
	24.463888888888899 -31.819238815542512 3.5192388155425132 1 
	23.351111111111098 -32.800521696132336 3.065410897703976 1 
	23.336764748684974 -32.760699231148749 3.4037652151187618 0.99359509346773089 
	23.351111111111098 -32.659619407771267 3.7096194077712568 1 
	22.238333333333301 -33.5 3.2500000000000013 1 
	22.238333333333301 -33.5 3.5750000000000011 1 
	22.238333333333301 -33.5 3.9000000000000012 1 
	0 
	0 
	0 
	0 
	0 
	0 
	0 
	F 1 F 0 F 1 F 0 } I I I I 
	null_surface 
	nullbs 
	nullbs 
	-1 
	-1 
	I I 
	0 
	0 
	0 
	
	-1 
	none F F 1 F 0 } I I #
-78 point $-1 -1 -1 $-1 25.5766666666667 -30.978858223313768 3.3288582233137687 #
-79 point $-1 -1 -1 $-1 25.5766666666667 -30.346232693111926 3.75156508839701 #
End-of-ACIS-data 