3000 0 1 0           
17 Abaqus 2024 - 310 12 ACIS 31.0 NT 24 Sat Sep  7 13:19:32 2024 
1 9.9999999999999995e-07 1e-10 
T @77 JBDCDDFVRFGKYEDW4QKYR8GJB5CM2DP5NA6MKE7BUA9VMMQ4KAS4F4Q77DM4GG67BAQKM664FA64K 
-0 body $1 -1 -1 $-1 0 $2 $-1 $3 T -0.68301270189200003 -0.68301270189200014 0 0.18301270189200025 0.5 1.000000000000151 #
-1 string_attrib-name_attrib-gen-attrib $-1 -1 $4 $-1 $0 2 1 1 1 1 1 1 1 1 1 1 1 1 1 0 1 1 1 @13 HKS_PART_NAME @13 bsplinewknots #
-2 lump $-1 -1 -1 $-1 $-1 $5 $0 T -0.68301270189200003 -0.68301270189200014 0 0.18301270189200025 0.5 1.000000000000151 #
-3 transform $-1 -1 1 0 0 0 1 0 0 0 1 0 0 0 1 no_rotate no_reflect no_shear #
-4 string_attrib-name_attrib-gen-attrib $-1 -1 $6 $1 $0 2 1 1 1 1 1 1 1 1 1 1 1 1 1 0 1 1 1 @18 HKS_ATTRIB_BODY_ID @1 1 #
-5 shell $-1 -1 -1 $-1 $-1 $-1 $7 $-1 $2 T -0.68301270189200003 -0.68301270189200014 0 0.18301270189200025 0.5 1.000000000000151 #
-6 string_attrib-name_attrib-gen-attrib $-1 -1 $-1 $4 $0 2 1 1 1 1 1 1 1 1 1 1 1 1 1 0 1 1 1 @15 ATTRIB_XACIS_ID @2 33 #
-7 face $8 -1 -1 $-1 $-1 $9 $5 $-1 $10 forward double out T -0.68301270189200003 -0.68301270189200014 0 0.18301270189200025 0.5 1.000000000000151 T 0 1224.7448713920001 3 4 #
-8 rgb_color-st-attrib $-1 -1 $11 $-1 $7 2 1 2 1 1 1 1 1 1 1 1 1 1 1 0 1 1 1 1 0 0 #
-9 loop $12 -1 -1 $-1 $-1 $13 $7 T -0.68301270189189334 -0.68301270189200014 0 0.18301270189200025 0.5 1.000000000000151 periphery $10 F #
-10 spline-surface $-1 -1 -1 $-1 forward { exactsur 0 full nubs 3 1 open open none none 2 2 
	0 3 1224.7448713920001 3 
	3 1 4 1 
	-0.5 0.5 0 
	-0.56100423396400001 0.27232909936900002 0.33333333333300003 
	-0.62200846792800002 0.044658198738519998 0.66666666666700003 
	-0.68301270189200003 -0.183012701892 1 
	-0.5 -0.5 0 
	-0.27232909936900002 -0.56100423396400001 0.33333333333300003 
	-0.044658198738519998 -0.62200846792800002 0.66666666666700003 
	0.183012701892 -0.68301270189200003 1 
	0 
	0 
	0 
	0 
	0 
	0 
	0 
	F 1 F 0 F 1 F 0 } I I I I #
-11 string_attrib-name_attrib-gen-attrib $-1 -1 $-1 $8 $7 2 1 1 1 1 1 1 1 1 1 1 1 1 1 0 1 1 1 @15 ATTRIB_XACIS_ID @2 35 #
-12 string_attrib-name_attrib-gen-attrib $-1 -1 $-1 $-1 $9 2 1 1 1 1 1 1 1 1 1 1 1 1 1 0 1 1 1 @15 ATTRIB_XACIS_ID @2 -1 #
-13 coedge $-1 -1 -1 $-1 $14 $15 $-1 $16 forward $9 $17 #
-14 coedge $-1 -1 -1 $-1 $18 $13 $-1 $19 forward $9 $20 #
-15 coedge $-1 -1 -1 $-1 $13 $18 $-1 $21 forward $9 $22 #
-16 edge $23 -1 -1 $-1 $24 0 $25 1.224744871391434 $13 $26 forward @7 unknown T -0.68301270189176633 -0.18301270189184182 0 -0.5 0.5 1.000000000000151 #
-17 pcurve $-1 -1 -1 $-1 0 forward { exppc 1 nubs 1 open 2 
	0 1 1.224744871391434 1 
	0 3 
	1224.7448713919814 3.0000000000001261 
	0.001 
	-1 
	spline forward { ref 0 } I I I I 
	} 0 0 #
-18 coedge $-1 -1 -1 $-1 $15 $14 $-1 $27 forward $9 $28 #
-19 edge $29 -1 -1 $-1 $25 1.2324679887384858e-13 $30 0.99999999999962041 $14 $31 forward @7 unknown T -0.68301270189189334 -0.68301270189200014 1 0.18301270189200025 -0.18301270189184171 1.0000000000001508 #
-20 pcurve $-1 -1 -1 $-1 0 forward { exppc 2 nubs 1 open 2 
	1.2324679887384858e-13 1 0.99999999999962041 1 
	1224.7448713920001 3.000000000000123 
	1224.7448713920001 4 
	0.001 
	-1 
	spline forward { ref 0 } I I I I 
	} 0 0 #
-21 edge $32 -1 -1 $-1 $33 0 $24 1 $15 $34 forward @7 unknown T -0.5 -0.5 0 -0.5 0.5 0 #
-22 pcurve $-1 -1 -1 $-1 0 forward { exppc 3 nubs 1 open 2 
	0 1 1 1 
	0 4 
	0 3 
	0.001 
	-1 
	spline forward { ref 0 } I I I I 
	} 0 0 #
-23 string_attrib-name_attrib-gen-attrib $-1 -1 $-1 $-1 $16 2 1 1 1 1 1 1 1 1 1 1 1 1 1 0 1 1 1 @15 ATTRIB_XACIS_ID @2 39 #
-24 vertex $-1 -1 -1 $-1 $21 $35 #
-25 vertex $-1 -1 -1 $-1 $16 $36 #
-26 straight-curve $-1 -1 -1 $-1 -0.5 0.5 0 -0.14942924536099134 -0.55767753582496771 0.81649658092795263 F 0 F 1.224744871391434 #
-27 edge $37 -1 -1 $-1 $30 -1.2247448713914342 $33 0 $18 $38 forward @7 unknown T -0.5 -0.68301270189200014 0 0.18301270189200014 -0.5 1.000000000000151 #
-28 pcurve $-1 -1 -1 $-1 0 forward { exppc 4 nubs 1 open 2 
	-1.2247448713914342 1 0 1 
	1224.7448713920001 3.9999999999996319 
	0 4 
	0.001 
	-1 
	spline forward { ref 0 } I I I I 
	} 0 0 #
-29 string_attrib-name_attrib-gen-attrib $-1 -1 $-1 $-1 $19 2 1 1 1 1 1 1 1 1 1 1 1 1 1 0 1 1 1 @15 ATTRIB_XACIS_ID @2 65 #
-30 vertex $-1 -1 -1 $-1 $19 $39 #
-31 straight-curve $-1 -1 -1 $-1 -0.68301270189200003 -0.183012701892 1 0.86602540378432902 -0.50000000000018996 0 F 1.2324679887384858e-13 F 0.99999999999962041 #
-32 string_attrib-name_attrib-gen-attrib $-1 -1 $-1 $-1 $21 2 1 1 1 1 1 1 1 1 1 1 1 1 1 0 1 1 1 @15 ATTRIB_XACIS_ID @2 96 #
-33 vertex $-1 -1 -1 $-1 $27 $40 #
-34 straight-curve $-1 -1 -1 $-1 -0.5 -0.5 0 0 1 0 F 0 F 1 #
-35 point $-1 -1 -1 $-1 -0.5 0.5 0 #
-36 point $-1 -1 -1 $-1 -0.68301270189176633 -0.18301270189184171 1.0000000000001508 #
-37 string_attrib-name_attrib-gen-attrib $-1 -1 $-1 $-1 $27 2 1 1 1 1 1 1 1 1 1 1 1 1 1 0 1 1 1 @15 ATTRIB_XACIS_ID @2 81 #
-38 straight-curve $-1 -1 -1 $-1 -0.5 -0.5 0 -0.55767753582496771 0.14942924536099134 -0.81649658092795263 F -1.2247448713914342 F 0 #
-39 point $-1 -1 -1 $-1 0.18301270189200014 -0.68301270189200014 1 #
-40 point $-1 -1 -1 $-1 -0.5 -0.5 0 #
End-of-ACIS-data 
