2400 0 1 0           
22 Abaqus 2021.HF4 - 2601 14 ACIS 26.0.1 NT 24 Fri Jan 20 08:16:55 2023 
1 9.9999999999999995e-07 1e-10 
-0 body $1 -1 -1 $-1 $2 $-1 $3 F #
-1 string_attrib-name_attrib-gen-attrib $-1 -1 $4 $-1 $0 2 1 1 1 1 1 1 1 1 1 1 1 1 1 0 1 1 1 @13 HKS_PART_NAME @13 curved_plates #
-2 lump $-1 -1 -1 $-1 $-1 $5 $0 F #
-3 transform $-1 -1 1 0 0 0 1 0 0 0 1 0 0 0 1 no_rotate no_reflect no_shear #
-4 string_attrib-name_attrib-gen-attrib $-1 -1 $-1 $1 $0 2 1 1 1 1 1 1 1 1 1 1 1 1 1 0 1 1 1 @18 HKS_ATTRIB_BODY_ID @1 1 #
-5 shell $-1 -1 -1 $-1 $-1 $-1 $6 $-1 $2 F #
-6 face $-1 -1 -1 $-1 $-1 $7 $5 $-1 $8 forward double out T 22.100000000000001 22.099999999999994 9.5 24.700000000000003 22.861522368914979 12.500000000000002 T 0.39269908169872325 1.2853981633974469 -3.0937246183638303 0 #
-7 loop $-1 -1 -1 $-1 $-1 $9 $6 T 22.100000000000001 22.099999999999998 9.5 24.700000000000003 22.861522368914979 12.500000000000002 unknown #
-8 spline-surface $-1 -1 -1 $-1 forward { exactsur full nurbs 2 3 both open open none none 2 2 
	0.39269908169872325 2 1.2853981633974469 2 
	-3.0937246183638303 3 0 3 
	22.861522368914976 22.861522368914976 12.5 1 
	23.623044737829964 22.099999999999998 12.5 0.92387953251128696 
	24.700000000000003 22.100000000000001 12.5 1 
	22.607681579276651 22.607681579276651 11.5 1 
	23.544721841567604 22.099999999999994 11.446540092928746 0.94925302167419123 
	24.700000000000003 22.100000000000001 11.5 1 
	22.353840789638326 22.353840789638326 10.5 1 
	23.470477071925899 22.100000000000005 10.447931871582046 0.97462651083709551 
	24.700000000000003 22.100000000000001 10.5 1 
	22.100000000000001 22.100000000000001 9.5 1 
	23.400000000000002 22.100000000000001 9.5 1 
	24.700000000000003 22.100000000000001 9.5 1 
	0 
	0 
	0 
	0 
	0 
	0 
	0 
	F 1 F 0 F 1 F 0 } I I I I #
-9 coedge $-1 -1 -1 $-1 $10 $11 $-1 $12 forward $7 $13 #
-10 coedge $-1 -1 -1 $-1 $14 $9 $-1 $15 forward $7 $16 #
-11 coedge $-1 -1 -1 $-1 $9 $17 $-1 $18 forward $7 $19 #
-12 edge $-1 -1 -1 $-1 $20 0.78539816339744906 $21 0.97214957704050642 $9 $22 forward @7 unknown T 22.861522368914976 22.538179004311552 12.499999999999998 23.255517399689214 22.861522368914979 12.5 #
-13 pcurve $-1 -1 -1 $-1 0 forward { exppc nubs 1 open 2 
	0.78539816339744917 1 1.5707963267949032 1 
	0.39269908169872325 -3.0937246183638303 
	1.2853981633974469 -3.0937246183638303 
	0 
	-1 
	spline forward { ref 0 } I I I I 
	} 0 0 #
-14 coedge $-1 -1 -1 $-1 $23 $10 $-1 $24 forward $7 $25 #
-15 edge $-1 -1 -1 $-1 $21 0.97214957704050642 $26 1.1625599299797376 $10 $22 forward @7 unknown T 23.255517399689211 22.297912945154888 12.499999999999998 23.705023728451014 22.538179004311552 12.500000000000002 #
-16 pcurve $-1 -1 -1 $-1 0 forward { ref 1 } 0 0 #
-17 coedge $-1 -1 -1 $-1 $11 $27 $-1 $28 reversed $7 $29 #
-18 edge $-1 -1 -1 $-1 $30 0 $20 3.187449236727661 $11 $31 forward @7 unknown T 22.100000000000001 22.100000000000001 9.5 22.861522368914976 22.861522368914976 12.5 #
-19 pcurve $-1 -1 -1 $-1 0 forward { exppc nubs 1 open 2 
	0 1 3.187449236727661 1 
	0.39269908169872325 0 
	0.39269908169872325 -3.0937246183638303 
	0 
	-1 
	spline forward { ref 0 } I I I I 
	} 0 0 #
-20 vertex $-1 -1 -1 $-1 $12 $32 #
-21 vertex $-1 -1 -1 $-1 $15 $33 #
-22 intcurve-curve $-1 -1 -1 $-1 forward { exactcur full nurbs 2 open 2 
	0.78539816339744906 2 1.5707963267949032 2 
	22.861522368914976 22.861522368914979 12.5 0.85355339059327084 
	23.62304473782995 22.099999999999994 12.5 0.8535533905932704 
	24.700000000000003 22.099999999999998 12.5 1 
	0 
	null_surface 
	null_surface 
	nullbs 
	nullbs 
	-1 
	-1 
	I I 
	0 
	0 
	0 
	
	-1 
	none F F 1 F 0 } I I #
-23 coedge $-1 -1 -1 $-1 $34 $14 $-1 $35 forward $7 $36 #
-24 edge $-1 -1 -1 $-1 $26 1.1625599299797376 $37 1.3605796894796578 $14 $22 forward @7 unknown T 23.705023728451014 22.149958199093156 12.500000000000002 24.192765524015005 22.297912945154888 12.500000000000002 #
-25 pcurve $-1 -1 -1 $-1 0 forward { ref 1 } 0 0 #
-26 vertex $-1 -1 -1 $-1 $24 $38 #
-27 coedge $-1 -1 -1 $-1 $17 $39 $-1 $40 reversed $7 $41 #
-28 edge $-1 -1 -1 $-1 $30 0 $42 0.24999999999999931 $17 $43 forward @7 unknown T 22.100000000000001 22.099999999999998 9.5 22.75 22.100000000000001 9.5 #
-29 pcurve $-1 -1 -1 $-1 0 forward { exppc nubs 1 open 2 
	-1 1 0 1 
	1.2853981633974469 0 
	0.39269908169872325 0 
	0 
	-1 
	spline forward { ref 0 } I I I I 
	} 0 0 #
-30 vertex $-1 -1 -1 $-1 $28 $44 #
-31 intcurve-curve $-1 -1 -1 $-1 forward { exactcur full nubs 3 open 2 
	0 3 3.187449236727661 3 
	22.100000000000001 22.100000000000001 9.5 
	22.353840789638326 22.353840789638326 10.5 
	22.607681579276651 22.607681579276651 11.5 
	22.861522368914976 22.861522368914976 12.5 
	0 
	spline forward { exactsur full nurbs 2 3 both open open none none 2 2 
	0 2 0.89269908169872325 2 
	-3.0937246183638303 3 0 3 
	22.100000000000001 24.700000000000003 12.5 1 
	22.099999999999998 23.623044737829957 12.5 0.92387953251128685 
	22.861522368914976 22.861522368914976 12.5 1 
	22.100000000000001 24.700000000000003 11.5 1 
	22.099999999999994 23.54472184156759 11.446540092928746 0.94925302167419123 
	22.607681579276651 22.607681579276651 11.5 1 
	22.100000000000001 24.700000000000003 10.5 1 
	22.100000000000005 23.470477071925892 10.447931871582046 0.97462651083709551 
	22.353840789638326 22.353840789638326 10.5 1 
	22.100000000000001 24.700000000000003 9.5 1 
	22.100000000000001 23.400000000000002 9.5 1 
	22.100000000000001 22.100000000000001 9.5 1 
	0 
	0 
	0 
	0 
	0 
	0 
	0 
	F 1 F 0 F 1 F 0 } I I I I 
	null_surface 
	nullbs 
	nullbs 
	-1 
	-1 
	I I 
	0 
	0 
	0 
	
	-1 
	none F F 1 F 0 } I I #
-32 point $-1 -1 -1 $-1 22.861522368914976 22.861522368914979 12.5 #
-33 point $-1 -1 -1 $-1 23.255517399689211 22.538179004311552 12.499999999999998 #
-34 coedge $-1 -1 -1 $-1 $45 $23 $-1 $46 reversed $7 $47 #
-35 edge $-1 -1 -1 $-1 $37 1.3605796894796578 $48 1.5707963267949032 $23 $22 forward @7 unknown T 24.192765524015005 22.099999999999998 12.5 24.700000000000003 22.149958199093156 12.500000000000002 #
-36 pcurve $-1 -1 -1 $-1 0 forward { ref 1 } 0 0 #
-37 vertex $-1 -1 -1 $-1 $35 $49 #
-38 point $-1 -1 -1 $-1 23.705023728451014 22.297912945154888 12.500000000000002 #
-39 coedge $-1 -1 -1 $-1 $27 $45 $-1 $50 reversed $7 $51 #
-40 edge $-1 -1 -1 $-1 $42 0.24999999999999931 $52 0.5 $27 $43 forward @7 unknown T 22.75 22.099999999999998 9.5 23.400000000000002 22.100000000000001 9.5 #
-41 pcurve $-1 -1 -1 $-1 0 forward { exppc nubs 1 open 2 
	-1 1 0 1 
	1.2853981633974469 0 
	0.39269908169872325 0 
	0 
	-1 
	spline forward { ref 0 } I I I I 
	} 0 0 #
-42 vertex $-1 -1 -1 $-1 $40 $53 #
-43 intcurve-curve $-1 -1 -1 $-1 forward { exactcur full nubs 1 open 2 
	0 1 1 1 
	22.100000000000001 22.100000000000001 9.5 
	24.700000000000003 22.100000000000001 9.5 
	0 
	null_surface 
	null_surface 
	nullbs 
	nullbs 
	-1 
	-1 
	I I 
	0 
	0 
	0 
	
	-1 
	none F F 1 F 0 } I I #
-44 point $-1 -1 -1 $-1 22.100000000000001 22.100000000000001 9.5 #
-45 coedge $-1 -1 -1 $-1 $39 $34 $-1 $54 reversed $7 $55 #
-46 edge $-1 -1 -1 $-1 $56 0 $48 3 $34 $57 forward @7 unknown T 24.700000000000003 22.100000000000001 9.5 24.700000000000003 22.100000000000001 12.5 #
-47 pcurve $-1 -1 -1 $-1 0 forward { exppc nubs 1 open 2 
	-3 1 -0 1 
	1.2853981633974469 -3.0937246183638303 
	1.2853981633974469 0 
	0 
	-1 
	spline forward { ref 0 } I I I I 
	} 0 0 #
-48 vertex $-1 -1 -1 $-1 $35 $58 #
-49 point $-1 -1 -1 $-1 24.192765524015005 22.149958199093156 12.500000000000002 #
-50 edge $-1 -1 -1 $-1 $52 0.5 $59 0.75000000000000067 $39 $43 forward @7 unknown T 23.400000000000002 22.100000000000001 9.5 24.050000000000004 22.100000000000001 9.5 #
-51 pcurve $-1 -1 -1 $-1 0 forward { exppc nubs 1 open 2 
	-1 1 0 1 
	1.2853981633974469 0 
	0.39269908169872325 0 
	0 
	-1 
	spline forward { ref 0 } I I I I 
	} 0 0 #
-52 vertex $-1 -1 -1 $-1 $50 $60 #
-53 point $-1 -1 -1 $-1 22.75 22.099999999999998 9.5 #
-54 edge $-1 -1 -1 $-1 $59 0.75000000000000067 $56 1 $45 $43 forward @7 unknown T 24.050000000000004 22.100000000000001 9.5 24.700000000000003 22.100000000000001 9.5 #
-55 pcurve $-1 -1 -1 $-1 0 forward { exppc nubs 1 open 2 
	-1 1 0 1 
	1.2853981633974469 0 
	0.39269908169872325 0 
	0 
	-1 
	spline forward { ref 0 } I I I I 
	} 0 0 #
-56 vertex $-1 -1 -1 $-1 $54 $61 #
-57 intcurve-curve $-1 -1 -1 $-1 forward { exactcur full nubs 3 open 2 
	0 3 3 3 
	24.700000000000003 22.100000000000001 9.5 
	24.700000000000003 22.100000000000001 10.5 
	24.700000000000003 22.100000000000001 11.5 
	24.700000000000003 22.100000000000001 12.5 
	0 
	spline forward { ref 0 } I I I I 
	null_surface 
	nullbs 
	nullbs 
	-1 
	-1 
	I I 
	0 
	0 
	0 
	
	-1 
	none F F 1 F 0 } I I #
-58 point $-1 -1 -1 $-1 24.700000000000003 22.099999999999998 12.5 #
-59 vertex $-1 -1 -1 $-1 $54 $62 #
-60 point $-1 -1 -1 $-1 23.400000000000002 22.100000000000001 9.5 #
-61 point $-1 -1 -1 $-1 24.700000000000003 22.100000000000001 9.5 #
-62 point $-1 -1 -1 $-1 24.050000000000004 22.100000000000001 9.5 #
End-of-ACIS-data 
