3100 0 1 0           
17 Abaqus 2024 - 310 12 ACIS 31.0 NT 24 Wed Nov 19 13:10:35 2025 
1 9.9999999999999995e-07 1e-10 
T @77 A645Q_NM7XUJWMGE7E9JZ7BTN73MYCNX8C_MNVPW2DQMMGQ8YA7VFCPXABVVF66CUBSBJE5VP8KVS 
-0 body $1 -1 -1 $-1 0 $2 $-1 $3 F #
-1 string_attrib-name_attrib-gen-attrib $-1 -1 $4 $-1 $0 2 1 1 1 1 1 1 1 1 1 1 1 1 1 0 1 1 1 @13 HKS_PART_NAME @10 TempFace_0 #
-2 lump $-1 -1 -1 $-1 $-1 $5 $0 F #
-3 transform $-1 -1 1 0 0 0 1 0 0 0 1 0 0 0 1 no_rotate no_reflect no_shear #
-4 string_attrib-name_attrib-gen-attrib $-1 -1 $-1 $1 $0 2 1 1 1 1 1 1 1 1 1 1 1 1 1 0 1 1 1 @18 HKS_ATTRIB_BODY_ID @1 1 #
-5 shell $-1 -1 -1 $-1 $-1 $-1 $6 $-1 $2 T -152.91022052741056 28.772613639210427 39.999999999948045 -152.12132034350768 29.851949702904729 41.500000000051955 #
-6 face $-1 -1 -1 $-1 $-1 $7 $5 $-1 $8 forward double out T -152.91022052741056 28.772613639210427 39.999999999948045 -152.12132034350768 29.851949702904729 41.500000000051955 T 0.7853981633974465 1.178097245096174 -1.5074813431681333 1.1102230246251565e-16 #
-7 loop $-1 -1 -1 $-1 $-1 $9 $6 T -152.91022052741056 28.772613639210427 39.999999999948045 -152.12132034350768 29.851949702904729 41.500000000051955 periphery $8 F #
-8 spline-surface $-1 -1 -1 $-1 reversed { exactsur 0 full nurbs 2 3 both open open none none 2 2 
	0.7853981633974465 2 1.178097245096174 2 
	-1.5074813431681333 3 1.1102230246251565e-16 3 
	-152.12132034355963 28.878679656440347 41.5 1 
	-152.54327719506773 29.300636507948447 41.5 0.98078528040333879 
	-152.77163859753387 29.851949702904722 41.5 1 
	-152.15667568261898 28.843324317381025 41 1 
	-152.58566514831887 29.272313783080932 41.000000000000128 0.98078528040321244 
	-152.81783257415941 29.832815531286478 41 1 
	-152.19203102167833 28.807968978321703 40.5 1 
	-152.62805310156995 29.2439910582134 40.500000000000142 0.98078528040308621 
	-152.86402655078504 29.813681359668223 40.5 1 
	-152.22738636073763 28.772613639262381 40 1 
	-152.67044105482114 29.215668333345878 40 0.98078528040296009 
	-152.91022052741056 29.794547188049975 40 1 
	0 
	0 
	0 
	0 
	0 
	0 
	0 
	F 1 F 0 F 1 F 0 } I I I I #
-9 coedge $-1 -1 -1 $-1 $10 $11 $-1 $12 reversed $7 $13 #
-10 coedge $-1 -1 -1 $-1 $14 $9 $-1 $15 reversed $7 $16 #
-11 coedge $-1 -1 -1 $-1 $9 $14 $-1 $17 forward $7 $18 #
-12 edge $-1 -1 -1 $-1 $19 0.78539816339744317 $20 1.1780972450961724 $9 $21 forward @7 unknown T -152.77163859753387 28.878679656440347 41.5 -152.12132034355963 29.851949702904729 41.5 #
-13 pcurve $-1 -1 -1 $-1 0 reversed { exppc 1 nubs 1 open 2 
	0.78539816339744317 1 1.1780972450961724 1 
	0.7853981633974465 -1.5074813431681333 
	1.178097245096174 -1.5074813431681333 
	0 
	-1 
	spline reversed { ref 0 } I I I I 
	} 0 0 #
-14 coedge $-1 -1 -1 $-1 $11 $10 $-1 $22 forward $7 $23 #
-15 edge $-1 -1 -1 $-1 $24 10.049875621120815 $19 11.557356964288923 $10 $25 forward @7 unknown T -152.22738636078958 28.772613639210427 39.999999999948045 -152.12132034350768 28.878679656492302 41.500000000051955 #
-16 pcurve $-1 -1 -1 $-1 0 reversed { exppc 2 nubs 1 open 2 
	10.049875621120844 1 11.557356964288925 1 
	0.7853981633974465 0 
	0.7853981633974465 -1.5074813431681333 
	0 
	-1 
	spline reversed { ref 0 } I I I I 
	} 0 0 #
-17 edge $-1 -1 -1 $-1 $26 0 $20 1.5074813431681331 $11 $27 forward @7 unknown T -152.91022052741056 29.794547188049972 40 -152.77163859753387 29.851949702904726 41.5 #
-18 pcurve $-1 -1 -1 $-1 0 reversed { exppc 3 nubs 1 open 2 
	-1.5074813431681331 1 -0 1 
	1.178097245096174 -1.5074813431681333 
	1.178097245096174 -1.532107773982716e-14 
	0 
	-1 
	spline reversed { ref 0 } I I I I 
	} 0 0 #
-19 vertex $-1 -1 -1 $-1 $12 $28 #
-20 vertex $-1 -1 -1 $-1 $12 $29 #
-21 ellipse-curve $-1 -1 -1 $-1 -150 31 41.5 -0 -0 -1 0 -3 0 1 F 0.78539816339744317 F 1.1780972450961724 #
-22 edge $-1 -1 -1 $-1 $24 0.78539816339744983 $26 1.1780972450961755 $14 $30 forward @7 unknown T -152.91022052741056 28.772613639262381 40 -152.22738636073763 29.794547188049975 40 #
-23 pcurve $-1 -1 -1 $-1 0 reversed { exppc 4 nubs 1 open 2 
	-1.1780972450961755 1 -0.78539816339744983 1 
	1.178097245096174 1.1102230246251565e-16 
	0.7853981633974465 1.1102230246251565e-16 
	0 
	-1 
	spline reversed { ref 0 } I I I I 
	} 0 0 #
-24 vertex $-1 -1 -1 $-1 $22 $31 #
-25 intcurve-curve $-1 -1 -1 $-1 forward { lawintcur 5 full nubs 3 open 4 
	0 3 4.0199502484483425 1 10.049875621120814 1 11.557356964288923 3 
	-152.93449314192418 28.065506858075835 30 
	-152.84021223785959 28.159787762227708 31.333333333359068 
	-152.60450997731138 28.39549002263551 34.666666666656639 
	-152.33345237791579 28.666547622062751 38.500000000033317 
	-152.15667568262194 28.843324317391726 40.999999999984404 
	-152.12132034355963 28.878679656440347 41.5 
	5.1956025294968096e-11 
	null_surface 
	null_surface 
	nullbs 
	nullbs 
	-1 
	-1 
	I I 
	0 
	3 2.0099751242241783 6.0299253726725075 10.049875621120814 
	0 
	
	-1 
	none F @106 MULTI_CUR(PDOMAIN(CUR(EDGE1),0,2.009975124224178),PDOMAIN(CUR(EDGE2),2.009975124224178,11.55735696428892)) 
	2 
	@4 EDGE 
	intcurve forward { exactcur 6 full nubs 3 open 2 
	0 3 2.0099751242241783 3 
	-152.93449314192418 28.065506858075835 30 
	-152.88735268984507 28.112647310154937 30.666666666666664 
	-152.84021223776597 28.159787762234039 31.333333333333332 
	-152.79307178568686 28.206928214313141 32 
	0 
	spline reversed { exactsur 7 full nurbs 2 3 both open open none none 2 2 
	0.39269908169872053 2 0.78539816339744939 2 
	-2.0099751242241783 3 0 3 
	-151.51159955784209 27.350675846580415 32 1 
	-152.23749526453457 27.651351693160827 31.999999999999993 0.98078528040331836 
	-152.79307178568686 28.206928214313141 32 1 
	-151.5371117866664 27.289083877746329 31.333333333333329 1 
	-152.27525889769123 27.59483442215933 31.3333333333334 0.98078528040326951 
	-152.84021223776597 28.159787762234043 31.333333333333329 1 
	-151.56262401549077 27.227491908912242 30.666666666666664 1 
	-152.31302253084795 27.538317151157823 30.666666666666728 0.98078528040322066 
	-152.88735268984507 28.112647310154934 30.666666666666664 1 
	-151.58813624431511 27.165899940078155 30 1 
	-152.35078616400466 27.481799880156313 29.999999999999993 0.98078528040317181 
	-152.93449314192418 28.065506858075835 30 1 
	0 
	0 
	0 
	0 
	0 
	0 
	0 
	F 1 F 0 F 1 F 0 } I I I I 
	null_surface 
	nullbs 
	nullbs 
	-1 
	-1 
	I I 
	0 
	0 
	0 
	
	-1 
	none F F 1 F 0 } F 0 F 2.0099751242241783 
	0 
	2.0099751242241783 @4 EDGE 
	intcurve forward { lawintcur 8 full nubs 3 open 3 
	2.0099751242241783 3 8.0399004968966619 1 11.557356964288923 3 
	-152.79307178568686 28.206928214313141 32 
	-152.6516504297804 28.34834957058618 34.000000000076689 
	-152.42773328197137 28.572266717894379 37.166666666675482 
	-152.20381613470502 28.796183865326896 40.333333333296935 
	-152.12132034355963 28.878679656440347 41.5 
	1.6282646764888357e-10 
	null_surface 
	null_surface 
	nullbs 
	nullbs 
	-1 
	-1 
	I I 
	0 
	2 6.0299253726725075 10.049875621120814 
	0 
	
	-1 
	none F @149 (MULTI_CUR(PDOMAIN(CUR(EDGE1),0,4.019950248448356),PDOMAIN(CUR(EDGE2),4.019950248448356,9.547381840064807)))O(1.000000000000006*X+-2.009975124224191) 
	2 
	@4 EDGE 
	intcurve forward { exactcur 9 full nubs 3 open 2 
	0 3 4.0199502484483558 3 
	-152.79307178568686 28.206928214313141 32 
	-152.69879088152868 28.301209118471352 33.333333333333329 
	-152.60450997737047 28.395490022629563 34.666666666666664 
	-152.51022907321226 28.489770926787774 36 
	0 
	spline reversed { exactsur 10 full nurbs 2 3 both open open none none 2 2 
	0.39269908169872392 2 0.78539816339745183 2 
	-4.0199502484483558 3 0 3 
	-151.35852618489608 27.720227659584939 36 1 
	-152.01091346559434 27.990455319169865 36 0.98078528040305135 
	-152.51022907321226 28.489770926787774 36 1 
	-151.4095506425447 27.597043721916762 34.666666666666664 1 
	-152.08644073190777 27.87742077716684 34.666666666666423 0.98078528040314028 
	-152.6045099773705 28.395490022629559 34.666666666666664 1 
	-151.46057510019341 27.473859784248589 33.333333333333329 1 
	-152.16196799822117 27.764386235163826 33.333333333333087 0.98078528040322932 
	-152.69879088152868 28.301209118471348 33.333333333333329 1 
	-151.51159955784209 27.350675846580415 32 1 
	-152.23749526453457 27.651351693160827 31.999999999999993 0.98078528040331836 
	-152.79307178568686 28.206928214313141 32 1 
	0 
	0 
	0 
	0 
	0 
	0 
	0 
	F 1 F 0 F 1 F 0 } I I I I 
	null_surface 
	nullbs 
	nullbs 
	-1 
	-1 
	I I 
	0 
	0 
	0 
	
	-1 
	none F F 1 F 0 } F 0 F 4.0199502484483558 
	0 
	4.0199502484483558 @4 EDGE 
	intcurve forward { lawintcur 11 full nubs 3 open 3 
	4.0199502484483558 3 8.0399004968966885 1 9.5473818400648067 3 
	-152.51022907321226 28.489770926787774 36 
	-152.4159481690715 28.58405183096345 37.33333333338129 
	-152.28631192588006 28.713688074158668 39.166666666634036 
	-152.15667568258385 28.843324317382205 41.000000000017721 
	-152.12132034355963 28.878679656440347 41.5 
	2.6369147515816182e-11 
	null_surface 
	null_surface 
	nullbs 
	nullbs 
	-1 
	-1 
	I I 
	0 
	1 8.0399004968966885 
	0 
	
	-1 
	none F @148 (MULTI_CUR(PDOMAIN(CUR(EDGE1),0,4.019950248448356),PDOMAIN(CUR(EDGE2),4.019950248448356,5.527431591616484)))O(1.000000000000006*X+-4.01995024844838) 
	2 
	@4 EDGE 
	intcurve forward { exactcur 12 full nubs 3 open 2 
	0 3 4.0199502484483558 3 
	-152.51022907321226 28.489770926787774 36 
	-152.41594816905405 28.584051830945974 37.333333333333329 
	-152.32166726489584 28.678332735104178 38.666666666666664 
	-152.22738636073763 28.772613639262381 40 
	0 
	spline reversed { exactsur 13 full nurbs 2 3 both open open none none 2 2 
	0.39269908169872703 2 0.78539816339745228 2 
	-4.0199502484483558 3 0 3 
	-151.20545281195004 28.089779472589452 40 1 
	-151.78433166665411 28.329558945178896 40 0.98078528040347435 
	-152.22738636073763 28.772613639262381 40 1 
	-151.25647726959872 27.966595534921286 38.666666666666664 1 
	-151.85985893296748 28.216524403175931 38.666666666667048 0.98078528040333324 
	-152.32166726489584 28.678332735104178 38.666666666666664 1 
	-151.3075017272474 27.843411597253109 37.333333333333329 1 
	-151.93538619928097 28.103489861172921 37.333333333333727 0.98078528040319224 
	-152.41594816905405 28.584051830945974 37.333333333333329 1 
	-151.35852618489608 27.720227659584939 36 1 
	-152.01091346559434 27.990455319169865 36 0.98078528040305135 
	-152.51022907321226 28.489770926787774 36 1 
	0 
	0 
	0 
	0 
	0 
	0 
	0 
	F 1 F 0 F 1 F 0 } I I I I 
	null_surface 
	nullbs 
	nullbs 
	-1 
	-1 
	I I 
	0 
	0 
	0 
	
	-1 
	none F F 1 F 0 } F 0 F 4.0199502484483558 
	0 
	4.0199502484483558 @4 EDGE 
	intcurve forward { exactcur 14 full nubs 3 open 2 
	4.0199502484483558 3 5.5274315916164838 3 
	-152.22738636073763 28.772613639262381 40 
	-152.1920310216783 28.807968978321703 40.5 
	-152.15667568261898 28.843324317381025 41 
	-152.12132034355963 28.878679656440347 41.5 
	0 
	spline reversed { exactsur 15 full nurbs 2 3 both open open none none 2 2 
	0.39269908169872492 2 0.7853981633974465 2 
	-1.5074813431681333 3 0 3 
	-151.14805029709527 28.228361402466138 41.5 1 
	-151.69936349205159 28.456722804932276 41.5 0.98078528040314694 
	-152.12132034355963 28.878679656440347 41.5 1 
	-151.16718446871351 28.182167425840575 41 1 
	-151.72768621691907 28.414334851681144 40.999999999999886 0.98078528040325597 
	-152.15667568261898 28.843324317381025 41 1 
	-151.18631864033176 28.135973449215019 40.5 1 
	-151.75600894178666 28.371946898430018 40.499999999999886 0.9807852804033651 
	-152.19203102167833 28.807968978321703 40.5 1 
	-151.20545281195004 28.089779472589452 40 1 
	-151.78433166665411 28.329558945178896 40 0.98078528040347435 
	-152.22738636073763 28.772613639262381 40 1 
	0 
	0 
	0 
	0 
	0 
	0 
	0 
	F 1 F 0 F 1 F 0 } I I I I 
	null_surface 
	nullbs 
	nullbs 
	-1 
	-1 
	I I 
	0 
	0 
	0 
	
	-1 
	none F F 1 F 0 } F 4.0199502484483558 F 5.5274315916164838 
	4.0199502484483558 
	5.5274315916164838 
	1 @80 (0.999999999999994*X+4.019950248448356)O(MULTI_CURVEPERP(CUR(EDGE1),CUR(EDGE2))) 
	2 
	@4 EDGE 
	intcurve forward { ref 12 } F 0 F 4.0199502484483558 
	0 
	4.0199502484483558 @4 EDGE 
	intcurve forward { ref 14 } F 4.0199502484483558 F 5.5274315916164838 
	4.0199502484483558 
	5.5274315916164838 } F 4.0199502484483558 F 9.5473818400648067 
	4.0199502484483558 
	9.5473818400648067 
	1 @81 (0.9999999999999936*X+2.009975124224178)O(MULTI_CURVEPERP(CUR(EDGE1),CUR(EDGE2))) 
	2 
	@4 EDGE 
	intcurve forward { ref 9 } F 0 F 4.0199502484483558 
	0 
	4.0199502484483558 @4 EDGE 
	intcurve forward { ref 11 } F 4.0199502484483558 F 9.5473818400648067 
	4.0199502484483558 
	9.5473818400648067 } F 2.0099751242241783 F 11.557356964288923 
	2.0099751242241783 
	11.557356964288923 
	1 @38 MULTI_CURVEPERP(CUR(EDGE1),CUR(EDGE2)) 
	2 
	@4 EDGE 
	intcurve forward { ref 6 } F 0 F 2.0099751242241783 
	0 
	2.0099751242241783 @4 EDGE 
	intcurve forward { ref 8 } F 2.0099751242241783 F 11.557356964288923 
	2.0099751242241783 
	11.557356964288923 } I I #
-26 vertex $-1 -1 -1 $-1 $22 $32 #
-27 intcurve-curve $-1 -1 -1 $-1 forward { exactcur 16 full nubs 3 open 2 
	0 3 1.5074813431681331 3 
	-152.91022052741056 29.794547188049975 40 
	-152.86402655078501 29.813681359668223 40.5 
	-152.81783257415944 29.832815531286474 41 
	-152.77163859753387 29.851949702904726 41.5 
	0 
	spline reversed { ref 0 } I I I I 
	null_surface 
	nullbs 
	nullbs 
	-1 
	-1 
	I I 
	0 
	0 
	0 
	
	-1 
	none F F 1 F 0 } I I #
-28 point $-1 -1 -1 $-1 -152.12132034355963 28.878679656440351 41.5 #
-29 point $-1 -1 -1 $-1 -152.77163859753387 29.851949702904726 41.5 #
-30 ellipse-curve $-1 -1 -1 $-1 -150 31 40 -0 -0 -1 0 -3.1499999999999986 0 1 F 0.78539816339744983 F 1.1780972450961755 #
-31 point $-1 -1 -1 $-1 -152.22738636073763 28.772613639262381 40 #
-32 point $-1 -1 -1 $-1 -152.91022052741056 29.794547188049972 40 #
End-of-ACIS-data 
