2600 0 1 0           
17 Abaqus 2024 - 310 12 ACIS 31.0 NT 24 Mon Sep 16 12:15:56 2024 
1 9.9999999999999995e-07 1e-10 
T @77 EB6YJ69E3ZDAYV5XPZKDJNCT677M2HNGDBRBGCPUAD6CJM7DQ8T4PPQ7KACMN86CU8SBK66W6DCMF 
-0 body $1 -1 -1 $-1 $2 $-1 $3 F #
-1 string_attrib-name_attrib-gen-attrib $-1 -1 $4 $-1 $0 2 1 1 1 1 1 1 1 1 1 1 1 1 1 0 1 1 1 @13 HKS_PART_NAME @9 P3_plates #
-2 lump $-1 -1 -1 $-1 $-1 $5 $0 F #
-3 transform $-1 -1 1 0 0 0 1 0 0 0 1 0 0 0 1 no_rotate no_reflect no_shear #
-4 string_attrib-name_attrib-gen-attrib $-1 -1 $-1 $1 $0 2 1 1 1 1 1 1 1 1 1 1 1 1 1 0 1 1 1 @18 HKS_ATTRIB_BODY_ID @1 1 #
-5 shell $-1 -1 -1 $-1 $-1 $-1 $6 $-1 $2 T 18.899999999961498 -33.500000000038504 3.8999999999611696 22.238333333371802 -31.550000000000001 3.9000000000385033 #
-6 face $-1 -1 -1 $-1 $-1 $7 $5 $-1 $8 forward double out T 18.899999999961498 -33.500000000038504 3.8999999999611696 22.238333333371802 -31.550000000000001 3.9000000000385033 F #
-7 loop $-1 -1 -1 $-1 $-1 $9 $6 T 18.899999999961498 -33.500000000038504 3.8999999999611696 22.238333333371802 -31.550000000000001 3.9000000000385033 periphery $8 F #
-8 plane-surface $-1 -1 -1 $-1 20.56916666666665 -32.525000000000006 3.9000000000000008 1.9537240486347949e-17 -8.4976886691514912e-18 -1 -1 0 -1.9537240486347949e-17 reverse_v I I I I #
-9 coedge $-1 -1 -1 $-1 $10 $11 $-1 $12 reversed $7 $-1 #
-10 coedge $-1 -1 -1 $-1 $13 $9 $-1 $14 reversed $7 $-1 #
-11 coedge $-1 -1 -1 $-1 $9 $13 $-1 $15 forward $7 $-1 #
-12 edge $-1 -1 -1 $-1 $16 0 $17 1.9499999999999993 $9 $18 forward @7 unknown T 22.238333333333301 -33.5 3.9000000000000012 22.238333333333301 -31.550000000000001 3.9000000000000012 #
-13 coedge $-1 -1 -1 $-1 $11 $10 $-1 $19 forward $7 $-1 #
-14 edge $-1 -1 -1 $-1 $20 11.500000000000025 $16 14.838333333333274 $10 $21 forward @7 unknown T 18.899999999961498 -33.500000000038504 3.8999999999611696 22.238333333371802 -33.499999999898243 3.9000000000385033 #
-15 edge $-1 -1 -1 $-1 $22 0 $17 3.3383333333333027 $11 $23 forward @7 unknown T 18.899999999999999 -31.550000000000001 3.9000000000000012 22.238333333333301 -31.550000000000001 3.9000000000000012 #
-16 vertex $-1 -1 -1 $-1 $14 $24 #
-17 vertex $-1 -1 -1 $-1 $12 $25 #
-18 straight-curve $-1 -1 -1 $-1 22.238333333333301 -33.5 3.9000000000000012 0 1 0 I I #
-19 edge $-1 -1 -1 $-1 $20 0 $22 1.9499999999999993 $13 $26 forward @7 unknown T 18.899999999999999 -33.5 3.9000000000000012 18.899999999999999 -31.550000000000001 3.9000000000000012 #
-20 vertex $-1 -1 -1 $-1 $19 $27 #
-21 intcurve-curve $-1 -1 -1 $-1 forward { lawintcur 0 full nubs 3 open 5 
	0 3 4.6750000000000007 1 7.6000000000000352 1 10.524999999999991 1 14.838333333333274 3 
	7.3999999999999995 -33.5 3.9000000000000004 
	8.9583333333453865 -33.5 3.8999999999997699 
	11.49166666666224 -33.5 3.9000000000000723 
	15.000000000003293 -33.5 3.8999999999999861 
	18.387777777781444 -33.500000000027711 3.9000000000001513 
	20.800555555546971 -33.499999999918273 3.8999999999995754 
	22.238333333333301 -33.5 3.9000000000000012 
	3.8501911934287391e-11 
	null_surface 
	null_surface 
	nullbs 
	nullbs 
	-1 
	-1 
	I I 
	0 
	5 3.6999999999999993 5.6500000000000012 7.6000000000000352 9.5499999999999936 11.499999999999989 
	0 
	
	-1 
	none F @106 MULTI_CUR(PDOMAIN(CUR(EDGE1),0,3.699999999999999),PDOMAIN(CUR(EDGE2),3.699999999999999,14.83833333333327)) 
	2 
	@4 EDGE 
	intcurve forward { exactcur 1 full nubs 3 open 2 
	0 3 3.6999999999999993 3 
	7.3999999999999995 -33.5 3.9000000000000004 
	8.6333333333333329 -33.5 3.9000000000000004 
	9.8666666666666671 -33.5 3.9000000000000004 
	11.1 -33.5 3.9000000000000004 
	0 
	null_surface 
	null_surface 
	nullbs 
	nullbs 
	-1 
	-1 
	I I 
	0 
	0 
	0 
	
	-1 
	none F F 1 F 0 } F 0 F 3.6999999999999993 
	0 
	3.6999999999999993 @4 EDGE 
	intcurve forward { lawintcur 2 full nubs 3 open 5 
	3.6999999999999993 3 6.6250000000000178 1 9.5499999999999936 1 11.499999999999989 1 14.838333333333274 3 
	11.1 -33.5 3.9000000000000004 
	12.075000000004083 -33.5 3.899999999999423 
	14.025000000000503 -33.499999999999567 3.900000000000289 
	16.625000000001585 -33.500000000000362 3.8999999999999524 
	19.362777777779712 -33.500000000018645 3.900000000000114 
	21.12555555554891 -33.499999999936747 3.8999999999996717 
	22.238333333333301 -33.5 3.9000000000000012 
	2.9731313917106292e-11 
	null_surface 
	null_surface 
	nullbs 
	nullbs 
	-1 
	-1 
	I I 
	0 
	4 5.6500000000000012 7.6000000000000352 9.5499999999999936 11.499999999999989 
	0 
	
	-1 
	none F @150 (MULTI_CUR(PDOMAIN(CUR(EDGE1),0,5.849999999999992),PDOMAIN(CUR(EDGE2),5.849999999999992,11.13833333333327)))O(0.9999999999999996*X+-3.699999999999998) 
	2 
	@4 EDGE 
	intcurve forward { lawintcur 3 full nubs 3 open 3 
	0 3 2.9250000000000176 1 5.8499999999999917 3 
	11.1 -33.5 3.9000000000000004 
	12.075000000006392 -33.499999999993072 3.899999999999423 
	14.0249999999974 -33.500000000003467 3.899999999999928 
	15.974999999998817 -33.5 3.9000000000007224 
	16.949999999999999 -33.5 3.9000000000000008 
	4.8155612842463946e-12 
	null_surface 
	null_surface 
	nullbs 
	nullbs 
	-1 
	-1 
	I I 
	0 
	2 1.9500000000000011 3.9000000000000337 
	0 
	
	-1 
	none F @116 (MULTI_CUR(PDOMAIN(CUR(EDGE1),0,1.950000000000001),PDOMAIN(CUR(EDGE2),1.950000000000001,5.849999999999992)))O(1*X+0) 
	2 
	@4 EDGE 
	intcurve forward { exactcur 4 full nubs 3 open 2 
	0 3 1.9500000000000011 3 
	11.1 -33.5 3.9000000000000004 
	11.75 -33.5 3.9000000000000004 
	12.4 -33.5 3.9000000000000004 
	13.050000000000001 -33.5 3.9000000000000004 
	0 
	null_surface 
	null_surface 
	nullbs 
	nullbs 
	-1 
	-1 
	I I 
	0 
	0 
	0 
	
	-1 
	none F F 1 F 0 } F 0 F 1.9500000000000011 
	0 
	1.9500000000000011 @4 EDGE 
	intcurve forward { lawintcur 5 full nubs 3 open 3 
	1.9500000000000011 3 3.9000000000000337 1 5.8499999999999917 3 
	13.050000000000001 -33.5 3.9000000000000004 
	13.700000000000808 -33.5 3.8999999999996153 
	15.000000000000778 -33.499999999997691 3.8999999999999524 
	16.299999999997677 -33.500000000004619 3.9000000000004817 
	16.949999999999999 -33.5 3.9000000000000008 
	2.6468131560938621e-12 
	null_surface 
	null_surface 
	nullbs 
	nullbs 
	-1 
	-1 
	I I 
	0 
	1 3.9000000000000337 
	0 
	
	-1 
	none F @149 (MULTI_CUR(PDOMAIN(CUR(EDGE1),0,1.950000000000037),PDOMAIN(CUR(EDGE2),1.950000000000037,3.899999999999999)))O(1.000000000000002*X+-1.950000000000005) 
	2 
	@4 EDGE 
	intcurve forward { exactcur 6 full nubs 3 open 2 
	0 3 3.8999999999999986 3 
	13.050000000000001 -33.5 3.9000000000000004 
	14.349999999999998 -33.5 3.9000000000000004 
	15.649999999999999 -33.5 3.9000000000000008 
	16.949999999999999 -33.5 3.9000000000000008 
	0 
	null_surface 
	null_surface 
	nullbs 
	nullbs 
	-1 
	-1 
	I I 
	0 
	0 
	0 
	
	-1 
	none F F 1 F 0 } F 0 F 1.9500000000000366 
	0 
	1.9500000000000366 @4 EDGE 
	intcurve forward { exactcur 7 full nubs 3 open 2 
	0 3 3.8999999999999986 3 
	13.050000000000001 -33.5 3.9000000000000004 
	14.349999999999998 -33.5 3.9000000000000004 
	15.649999999999999 -33.5 3.9000000000000008 
	16.949999999999999 -33.5 3.9000000000000008 
	0 
	null_surface 
	null_surface 
	nullbs 
	nullbs 
	-1 
	-1 
	I I 
	0 
	0 
	0 
	
	-1 
	none F F 1 F 0 } F 1.9500000000000366 F 3.8999999999999986 
	1.9500000000000366 
	3.8999999999999986 
	1 @80 (0.999999999999998*X+1.950000000000001)O(MULTI_CURVEPERP(CUR(EDGE1),CUR(EDGE2))) 
	2 
	@4 EDGE 
	intcurve forward { ref 6 } F 0 F 1.9500000000000366 
	0 
	1.9500000000000366 @4 EDGE 
	intcurve forward { ref 7 } F 1.9500000000000366 F 3.8999999999999986 
	1.9500000000000366 
	3.8999999999999986 } F 1.9500000000000011 F 5.8499999999999917 
	1.9500000000000011 
	5.8499999999999917 
	1 @49 (1*X+-0)O(MULTI_CURVEPERP(CUR(EDGE1),CUR(EDGE2))) 
	2 
	@4 EDGE 
	intcurve forward { ref 4 } F 0 F 1.9500000000000011 
	0 
	1.9500000000000011 @4 EDGE 
	intcurve forward { ref 5 } F 1.9500000000000011 F 5.8499999999999917 
	1.9500000000000011 
	5.8499999999999917 } F 0 F 5.8499999999999917 
	0 
	5.8499999999999917 @4 EDGE 
	intcurve forward { lawintcur 8 full nubs 3 open 3 
	5.8499999999999917 3 7.7999999999999856 1 11.13833333333327 3 
	16.949999999999999 -33.5 3.9000000000000008 
	17.600000000005412 -33.499999999995381 3.9000000000004817 
	19.362777777773523 -33.500000000003951 3.8999999999996859 
	21.125555555554175 -33.5 3.8999999999996717 
	22.238333333333301 -33.5 3.9000000000000012 
	3.5850834251388721e-12 
	null_surface 
	null_surface 
	nullbs 
	nullbs 
	-1 
	-1 
	I I 
	0 
	1 7.7999999999999856 
	0 
	
	-1 
	none F @149 (MULTI_CUR(PDOMAIN(CUR(EDGE1),0,1.949999999999999),PDOMAIN(CUR(EDGE2),1.949999999999999,5.288333333333293)))O(1.000000000000003*X+-5.850000000000009) 
	2 
	@4 EDGE 
	intcurve forward { exactcur 9 full nubs 3 open 2 
	0 3 1.9499999999999993 3 
	16.949999999999999 -33.5 3.9000000000000008 
	17.599999999999998 -33.5 3.9000000000000008 
	18.249999999999996 -33.5 3.9000000000000012 
	18.899999999999999 -33.5 3.9000000000000012 
	0 
	null_surface 
	null_surface 
	nullbs 
	nullbs 
	-1 
	-1 
	I I 
	0 
	0 
	0 
	
	-1 
	none F F 1 F 0 } F 0 F 1.9499999999999993 
	0 
	1.9499999999999993 @4 EDGE 
	intcurve forward { exactcur 10 full nubs 3 open 2 
	1.9499999999999993 3 5.2883333333332931 3 
	18.899999999999999 -33.5 3.9000000000000012 
	20.012777777777767 -33.5 3.9000000000000012 
	21.125555555555533 -33.5 3.9000000000000012 
	22.238333333333301 -33.5 3.9000000000000012 
	0 
	null_surface 
	null_surface 
	nullbs 
	nullbs 
	-1 
	-1 
	I I 
	0 
	0 
	0 
	
	-1 
	none F F 1 F 0 } F 1.9499999999999993 F 5.2883333333332931 
	1.9499999999999993 
	5.2883333333332931 
	1 @81 (0.9999999999999971*X+5.849999999999992)O(MULTI_CURVEPERP(CUR(EDGE1),CUR(EDGE2))) 
	2 
	@4 EDGE 
	intcurve forward { ref 9 } F 0 F 1.9499999999999993 
	0 
	1.9499999999999993 @4 EDGE 
	intcurve forward { ref 10 } F 1.9499999999999993 F 5.2883333333332931 
	1.9499999999999993 
	5.2883333333332931 } F 5.8499999999999917 F 11.13833333333327 
	5.8499999999999917 
	11.13833333333327 
	1 @64 (1*X+3.699999999999999)O(MULTI_CURVEPERP(CUR(EDGE1),CUR(EDGE2))) 
	2 
	@4 EDGE 
	intcurve forward { ref 3 } F 0 F 5.8499999999999917 
	0 
	5.8499999999999917 @4 EDGE 
	intcurve forward { ref 8 } F 5.8499999999999917 F 11.13833333333327 
	5.8499999999999917 
	11.13833333333327 } F 3.6999999999999993 F 14.838333333333274 
	3.6999999999999993 
	14.838333333333274 
	1 @38 MULTI_CURVEPERP(CUR(EDGE1),CUR(EDGE2)) 
	2 
	@4 EDGE 
	intcurve forward { ref 1 } F 0 F 3.6999999999999993 
	0 
	3.6999999999999993 @4 EDGE 
	intcurve forward { ref 2 } F 3.6999999999999993 F 14.838333333333274 
	3.6999999999999993 
	14.838333333333274 } I I #
-22 vertex $-1 -1 -1 $-1 $19 $28 #
-23 intcurve-curve $-1 -1 -1 $-1 forward { exactcur 11 full nubs 3 open 2 
	0 3 3.3383333333333027 3 
	18.899999999999999 -31.550000000000001 3.9000000000000012 
	20.012777777777767 -31.550000000000001 3.9000000000000012 
	21.125555555555533 -31.550000000000001 3.9000000000000012 
	22.238333333333301 -31.550000000000001 3.9000000000000012 
	0 
	null_surface 
	null_surface 
	nullbs 
	nullbs 
	-1 
	-1 
	I I 
	0 
	0 
	0 
	
	-1 
	none F F 1 F 0 } I I #
-24 point $-1 -1 -1 $-1 22.238333333333301 -33.5 3.9000000000000012 #
-25 point $-1 -1 -1 $-1 22.238333333333301 -31.550000000000001 3.9000000000000012 #
-26 intcurve-curve $-1 -1 -1 $-1 forward { exactcur 12 full nubs 3 open 2 
	0 3 1.9499999999999993 3 
	18.899999999999999 -33.5 3.9000000000000012 
	18.899999999999999 -32.850000000000001 3.9000000000000012 
	18.899999999999999 -32.200000000000003 3.9000000000000012 
	18.899999999999999 -31.550000000000001 3.9000000000000012 
	0 
	null_surface 
	null_surface 
	nullbs 
	nullbs 
	-1 
	-1 
	I I 
	0 
	0 
	0 
	
	-1 
	none F F 1 F 0 } I I #
-27 point $-1 -1 -1 $-1 18.899999999999999 -33.5 3.9000000000000012 #
-28 point $-1 -1 -1 $-1 18.899999999999999 -31.550000000000001 3.9000000000000012 #
End-of-ACIS-data 
