2600 0 1 0           
17 Abaqus 2024 - 310 12 ACIS 31.0 NT 24 Mon Sep 16 15:14:53 2024 
1 9.9999999999999995e-07 1e-10 
T @77 BXETG_Z3XSUMAKC6_7BMYPF_D2448F6E_A_MR85EFCQCN4P7FARUSG53QBU4PEPHKAMKJJQ4KC9VS 
-0 body $1 -1 -1 $-1 $2 $-1 $3 F #
-1 string_attrib-name_attrib-gen-attrib $-1 -1 $4 $-1 $0 2 1 1 1 1 1 1 1 1 1 1 1 1 1 0 1 1 1 @13 HKS_PART_NAME @9 P3_plates #
-2 lump $-1 -1 -1 $-1 $-1 $5 $0 F #
-3 transform $-1 -1 1 0 0 0 1 0 0 0 1 0 0 0 1 no_rotate no_reflect no_shear #
-4 string_attrib-name_attrib-gen-attrib $-1 -1 $-1 $1 $0 2 1 1 1 1 1 1 1 1 1 1 1 1 1 0 1 1 1 @18 HKS_ATTRIB_BODY_ID @1 1 #
-5 shell $-1 -1 -1 $-1 $-1 $-1 $6 $-1 $2 F #
-6 face $-1 -1 -1 $-1 $-1 $7 $5 $-1 $8 forward double out F T 0.39269908169872425 1.0890486225480864 -3.8870107837834826 0 #
-7 loop $-1 -1 -1 $-1 $-1 $9 $6 T 22.238333333333301 -33.5 3.3288582233137687 25.5766666666667 -30.346232693111926 3.9000000000000012 periphery $8 F #
-8 spline-surface $-1 -1 -1 $-1 reversed { exactsur 0 full nurbs 2 3 both open open none none 2 2 
	0.39269908169872425 2 1.0890486225480864 2 
	-3.8870107837834826 3 0 3 
	25.5766666666667 -30.978858223313768 3.3288582233137687 1 
	25.576666666666707 -30.704586269833527 3.6031301767940196 0.9807852804032352 
	25.5766666666667 -30.346232693111926 3.75156508839701 1 
	24.463888888888899 -31.819238815542512 3.5192388155425132 1 
	24.449449447022157 -31.319264763149835 3.7033708487991941 0.9871901869354901 
	24.463888888888899 -30.747488462074614 3.801043392264674 1 
	23.351111111111098 -32.659619407771267 3.7096194077712568 1 
	23.336764748685003 -31.92601858307966 3.8023191792073847 0.99359509346774511 
	23.351111111111098 -31.148744231037305 3.8505216961323372 1 
	22.238333333333301 -33.5 3.9000000000000012 1 
	22.238333333333301 -32.524999999999999 3.9000000000000012 1 
	22.238333333333301 -31.550000000000001 3.9000000000000012 1 
	0 
	0 
	0 
	0 
	0 
	0 
	0 
	F 1 F 0 F 1 F 0 } I I I I #
-9 coedge $-1 -1 -1 $-1 $10 $11 $-1 $12 reversed $7 $13 #
-10 coedge $-1 -1 -1 $-1 $14 $9 $-1 $15 reversed $7 $16 #
-11 coedge $-1 -1 -1 $-1 $9 $14 $-1 $17 forward $7 $18 #
-12 edge $-1 -1 -1 $-1 $19 0.7853981633974485 $20 1.1780972450961724 $9 $21 forward @7 unknown T 25.5766666666667 -30.978858223313768 3.3288582233137687 25.5766666666667 -30.346232693111926 3.75156508839701 #
-13 pcurve $-1 -1 -1 $-1 0 reversed { exppc 1 nubs 1 open 2 
	0.7853981633974485 1 1.1780972450961724 1 
	0.39269908169872425 -3.8870107837834826 
	1.0890486225480864 -3.8870107837834826 
	0.001 
	-1 
	spline reversed { ref 0 } I I I I 
	} 0 0 #
-14 coedge $-1 -1 -1 $-1 $11 $10 $-1 $22 forward $7 $23 #
-15 edge $-1 -1 -1 $-1 $24 0 $19 4.2221828752049326 $10 $25 forward @7 unknown T 22.238333333333301 -33.5 3.3288582233137687 25.5766666666667 -30.978858223313768 3.9000000000000012 #
-16 pcurve $-1 -1 -1 $-1 0 reversed { exppc 2 nubs 1 open 2 
	0 1 4.2221828752049326 1 
	0.39269908169872425 0 
	0.39269908169872425 -3.8870107837834826 
	0 
	-1 
	spline reversed { ref 0 } I I I I 
	} 0 0 #
-17 edge $-1 -1 -1 $-1 $26 0 $20 3.5518386923620331 $11 $27 forward @7 unknown T 22.238333333333301 -31.550000000000001 3.75156508839701 25.5766666666667 -30.346232693111926 3.9000000000000012 #
-18 pcurve $-1 -1 -1 $-1 0 reversed { exppc 3 nubs 1 open 2 
	-3.5518386923620331 1 -0 1 
	1.0890486225480864 -3.8870107837834826 
	1.0890486225480864 0 
	0 
	-1 
	spline reversed { ref 0 } I I I I 
	} 0 0 #
-19 vertex $-1 -1 -1 $-1 $15 $28 #
-20 vertex $-1 -1 -1 $-1 $12 $29 #
-21 ellipse-curve $-1 -1 -1 $-1 25.5766666666667 -29.600000000000001 1.9500000000000015 -1 0 -6.123233995736766e-17 0 -1.9499999999999993 0 1 F 0.7853981633974485 F 1.1780972450961729 #
-22 edge $-1 -1 -1 $-1 $24 0 $26 1.9499999999999993 $14 $30 forward @7 unknown T 22.238333333333301 -33.5 3.9000000000000012 22.238333333333301 -31.550000000000001 3.9000000000000012 #
-23 pcurve $-1 -1 -1 $-1 0 reversed { exppc 4 nubs 1 open 2 
	-1.9499999999999993 1 0 1 
	1.0890486225480864 0 
	0.39269908169872425 0 
	0 
	-1 
	spline reversed { ref 0 } I I I I 
	} 0 0 #
-24 vertex $-1 -1 -1 $-1 $22 $31 #
-25 intcurve-curve $-1 -1 -1 $-1 forward { exactcur 5 full nubs 3 open 2 
	0 3 4.2221828752049326 3 
	22.238333333333301 -33.5 3.9000000000000012 
	23.351111111111098 -32.65961940777126 3.7096194077712568 
	24.463888888888899 -31.819238815542512 3.5192388155425132 
	25.5766666666667 -30.978858223313768 3.3288582233137687 
	0 
	spline reversed { exactsur 6 full nurbs 2 3 both open open none none 2 2 
	0.1963495408493619 2 0.89269908169872414 2 
	-4.1019804822793162 3 0 3 
	25.5766666666667 -31.40156508839701 2.6962326931119258 1 
	25.5766666666667 -31.253130176794013 3.0545862698335178 0.98078528040319257 
	25.5766666666667 -30.978858223313768 3.3288582233137687 1 
	24.463888888888899 -32.101043392264671 2.8808217954079507 1 
	24.449449447022122 -32.011805270658456 3.2303084819103365 0.98719018693546168 
	24.463888888888899 -31.819238815542512 3.5192388155425132 1 
	23.351111111111098 -32.800521696132336 3.065410897703976 1 
	23.336764748684974 -32.760699231148749 3.4037652151187618 0.99359509346773089 
	23.351111111111098 -32.659619407771267 3.7096194077712568 1 
	22.238333333333301 -33.5 3.2500000000000013 1 
	22.238333333333301 -33.5 3.5750000000000011 1 
	22.238333333333301 -33.5 3.9000000000000012 1 
	0 
	0 
	0 
	0 
	0 
	0 
	0 
	F 1 F 0 F 1 F 0 } I I I I 
	null_surface 
	nullbs 
	nullbs 
	-1 
	-1 
	I I 
	0 
	0 
	0 
	
	-1 
	none F F 1 F 0 } I I #
-26 vertex $-1 -1 -1 $-1 $22 $32 #
-27 intcurve-curve $-1 -1 -1 $-1 forward { exactcur 7 full nubs 3 open 2 
	0 3 3.5518386923620331 3 
	22.238333333333301 -31.550000000000001 3.9000000000000012 
	23.351111111111098 -31.148744231037309 3.8505216961323372 
	24.463888888888899 -30.747488462074617 3.8010433922646736 
	25.5766666666667 -30.346232693111926 3.75156508839701 
	0 
	spline reversed { ref 0 } I I I I 
	null_surface 
	nullbs 
	nullbs 
	-1 
	-1 
	I I 
	0 
	0 
	0 
	
	-1 
	none F F 1 F 0 } I I #
-28 point $-1 -1 -1 $-1 25.5766666666667 -30.978858223313768 3.3288582233137687 #
-29 point $-1 -1 -1 $-1 25.5766666666667 -30.346232693111926 3.75156508839701 #
-30 straight-curve $-1 -1 -1 $-1 22.238333333333301 -33.5 3.9000000000000012 0 1 0 I I #
-31 point $-1 -1 -1 $-1 22.238333333333301 -33.5 3.9000000000000012 #
-32 point $-1 -1 -1 $-1 22.238333333333301 -31.550000000000001 3.9000000000000012 #
End-of-ACIS-data 
