2600 0 1 0           
17 Abaqus 2024 - 310 12 ACIS 31.0 NT 24 Mon Sep 16 15:16:05 2024 
1 9.9999999999999995e-07 1e-10 
T @77 WGBTAJ3QQBYXD7FQFA7GDHA3S4SV396E9ACVE4QABAU4RAPWTAKMK4PWXA64M4PUECPUQG63KC3MM 
-0 body $1 -1 -1 $-1 $2 $-1 $3 F #
-1 string_attrib-name_attrib-gen-attrib $-1 -1 $4 $-1 $0 2 1 1 1 1 1 1 1 1 1 1 1 1 1 0 1 1 1 @13 HKS_PART_NAME @9 P3_plates #
-2 lump $-1 -1 -1 $-1 $-1 $5 $0 F #
-3 transform $-1 -1 1 0 0 0 1 0 0 0 1 0 0 0 1 no_rotate no_reflect no_shear #
-4 string_attrib-name_attrib-gen-attrib $-1 -1 $-1 $1 $0 2 1 1 1 1 1 1 1 1 1 1 1 1 1 0 1 1 1 @18 HKS_ATTRIB_BODY_ID @1 1 #
-5 shell $-1 -1 -1 $-1 $-1 $-1 $6 $-1 $2 F #
-6 face $-1 -1 -1 $-1 $-1 $7 $5 $-1 $8 forward double out F T 0.39269908169872425 0.96947475047953635 -3.3383333333332992 0 #
-7 loop $-1 -1 -1 $-1 $-1 $9 $6 T 25.576666666646769 -30.978858223361371 3.3288582232938371 28.91500000001993 -30.346232693111926 3.75156508839701 periphery $8 F #
-8 spline-surface $-1 -1 -1 $-1 reversed { exactsur 0 full nurbs 3 3 both open open none none 2 2 
	0.39269908169872425 3 0.96947475047953635 3 
	-3.3383333333332992 3 0 3 
	28.914999999999999 -30.978858223313768 3.3288582233137691 1 
	28.914999999999996 -30.767983046579822 3.4697605116748491 1 
	28.914999999999996 -30.557107869845872 3.61066280003593 1 
	28.914999999999999 -30.346232693111926 3.75156508839701 1 
	27.80222222222223 -30.978858223313765 3.3288582233137687 1 
	27.811765956918482 -30.77763737282001 3.4832304408153103 0.99573006231182992 
	27.811765956918482 -30.565857910980366 3.6247369531666012 0.99573006231182992 
	27.80222222222223 -30.346232693111922 3.75156508839701 1 
	26.689444444444469 -30.978858223313765 3.3288582233137687 1 
	26.699029281300508 -30.787374855952621 3.4968163922882187 0.99146012462366007 
	26.699029281300508 -30.574683320008095 3.6389323330725887 0.99146012462366007 
	26.689444444444469 -30.346232693111922 3.75156508839701 1 
	25.5766666666667 -30.978858223313768 3.3288582233137687 1 
	25.576666666666689 -30.797196575024266 3.5105198716032615 0.98719018693549032 
	25.576666666666689 -30.583585074905365 3.653250512796606 0.98719018693549032 
	25.5766666666667 -30.346232693111926 3.75156508839701 1 
	0 
	0 
	0 
	0 
	0 
	0 
	0 
	F 1 F 0 F 1 F 0 } I I I I #
-9 coedge $-1 -1 -1 $-1 $10 $11 $-1 $12 reversed $7 $13 #
-10 coedge $-1 -1 -1 $-1 $14 $9 $-1 $15 reversed $7 $16 #
-11 coedge $-1 -1 -1 $-1 $9 $14 $-1 $17 forward $7 $18 #
-12 edge $-1 -1 -1 $-1 $19 0 $20 0.76085225586289984 $9 $21 forward @7 unknown T 28.914999999999999 -30.978858223313768 3.3288582233137691 28.914999999999999 -30.346232693111926 3.75156508839701 #
-13 pcurve $-1 -1 -1 $-1 0 reversed { exppc 1 nubs 1 open 2 
	0 1 0.76085225586289984 1 
	0.39269908169872425 -3.3383333333332992 
	0.96947475047953635 -3.3383333333332992 
	0 
	-1 
	spline reversed { ref 0 } I I I I 
	} 0 0 #
-14 coedge $-1 -1 -1 $-1 $11 $10 $-1 $22 forward $7 $23 #
-15 edge $-1 -1 -1 $-1 $24 0 $19 3.3383333333333027 $10 $25 forward @7 unknown T 25.576666666646769 -30.978858223361371 3.3288582232938371 28.91500000001993 -30.978858223293837 3.328858223336665 #
-16 pcurve $-1 -1 -1 $-1 0 reversed { exppc 2 nubs 1 open 2 
	2.2204460492503131e-16 1 3.3383333333333027 1 
	0.39269908169872425 0 
	0.39269908169872425 -3.3383333333332992 
	0 
	-1 
	spline reversed { ref 0 } I I I I 
	} 0 0 #
-17 edge $-1 -1 -1 $-1 $26 0 $20 3.3383333333332992 $11 $27 forward @7 unknown T 25.5766666666667 -30.346232693111926 3.75156508839701 28.914999999999999 -30.346232693111926 3.75156508839701 #
-18 pcurve $-1 -1 -1 $-1 0 reversed { exppc 3 nubs 1 open 2 
	-3.3383333333332992 1 -0 1 
	0.96947475047953635 -3.3383333333332992 
	0.96947475047953635 0 
	0 
	-1 
	spline reversed { ref 0 } I I I I 
	} 0 0 #
-19 vertex $-1 -1 -1 $-1 $12 $28 #
-20 vertex $-1 -1 -1 $-1 $12 $29 #
-21 intcurve-curve $-1 -1 -1 $-1 forward { exactcur 4 full nubs 3 open 2 
	0 3 0.76085225586289984 3 
	28.914999999999999 -30.978858223313768 3.3288582233137691 
	28.914999999999999 -30.767983046579822 3.4697605116748491 
	28.914999999999999 -30.557107869845872 3.6106628000359295 
	28.914999999999999 -30.346232693111926 3.75156508839701 
	0 
	null_surface 
	null_surface 
	nullbs 
	nullbs 
	-1 
	-1 
	I I 
	0 
	0 
	0 
	
	-1 
	none F F 1 F 0 } I I #
-22 edge $-1 -1 -1 $-1 $24 0.7853981633974485 $26 1.1780972450961724 $14 $30 forward @7 unknown T 25.5766666666667 -30.978858223313768 3.3288582233137687 25.5766666666667 -30.346232693111926 3.75156508839701 #
-23 pcurve $-1 -1 -1 $-1 0 reversed { exppc 5 nubs 1 open 2 
	-1.1780972450961724 1 -0.7853981633974485 1 
	0.96947475047953635 0 
	0.39269908169872425 0 
	0 
	-1 
	spline reversed { ref 0 } I I I I 
	} 0 0 #
-24 vertex $-1 -1 -1 $-1 $22 $31 #
-25 intcurve-curve $-1 -1 -1 $-1 forward { lawintcur 6 full nubs 3 open 7 
	0 3 5.0074999999999488 1 10.01499999999999 1 15.022499999999921 1 20.029999999999951 1 
	23.368333333333229 1 26.706666666666511 3 
	25.5766666666667 -30.978858223313768 3.3288582233137687 
	27.245833333331436 -30.978858223355278 3.3288582233182162 
	30.584166666679543 -30.978858223293013 3.3288582233114989 
	35.591666666667436 -30.978858223315619 3.328858223314314 
	40.599166666663578 -30.97885822331164 3.3288582233135866 
	45.050277777782114 -30.978858223314123 3.3288582233137847 
	48.94500000000226 -30.978858223310404 3.328858223312944 
	51.170555555552866 -30.978858223320358 3.3288582233154176 
	52.283333333333303 -30.978858223313768 3.3288582233137705 
	1.99317146072795e-11 
	null_surface 
	null_surface 
	nullbs 
	nullbs 
	-1 
	-1 
	I I 
	0 
	7 3.3383333333332992 6.6766666666665975 10.01499999999999 13.353333333333278 16.691666666666563 20.029999999999951 23.368333333333229 
	0 
	
	-1 
	none F @106 MULTI_CUR(PDOMAIN(CUR(EDGE1),0,6.676666666666597),PDOMAIN(CUR(EDGE2),6.676666666666597,26.70666666666651)) 
	2 
	@4 EDGE 
	intcurve forward { lawintcur 7 full nubs 3 open 3 
	0 3 3.3383333333332992 1 6.6766666666665975 3 
	25.5766666666667 -30.978858223313768 3.3288582233137687 
	26.689444444453734 -30.97885822334144 3.3288582233167339 
	28.914999999999335 -30.978858223286096 3.3288582233110513 
	31.140555555547586 -30.97885822334144 3.32885822331624 
	32.253333333333302 -30.978858223313768 3.3288582233137691 
	1.3351121469377797e-11 
	null_surface 
	null_surface 
	nullbs 
	nullbs 
	-1 
	-1 
	I I 
	0 
	1 3.3383333333332992 
	0 
	
	-1 
	none F @116 (MULTI_CUR(PDOMAIN(CUR(EDGE1),0,3.338333333333299),PDOMAIN(CUR(EDGE2),3.338333333333299,6.676666666666597)))O(1*X+0) 
	2 
	@4 EDGE 
	intcurve forward { exactcur 8 full nubs 3 open 2 
	0 3 3.3383333333332992 3 
	25.5766666666667 -30.978858223313768 3.3288582233137687 
	26.689444444444465 -30.978858223313768 3.3288582233137687 
	27.80222222222223 -30.978858223313768 3.3288582233137687 
	28.914999999999999 -30.978858223313768 3.3288582233137691 
	0 
	spline reversed { exactsur 9 full nurbs 3 3 both open open none none 2 2 
	0.1963495408493619 3 0.77312520963017484 3 
	-3.3383333333332992 3 0 3 
	28.914999999999999 -31.40156508839701 2.6962326931119258 1 
	28.914999999999996 -31.260662800035934 2.9071078698458734 1 
	28.914999999999996 -31.119760511674848 3.1179830465798215 1 
	28.914999999999999 -30.978858223313768 3.3288582233137691 1 
	27.80222222222223 -31.40156508839701 2.6962326931119258 1 
	27.81176595691851 -31.274736953166613 2.9158579109803586 0.99573006231182037 
	27.81176595691851 -31.133230440815307 3.127637372819998 0.9957300623118206 
	27.80222222222223 -30.978858223313765 3.3288582233137687 1 
	26.689444444444469 -31.401565088397014 2.6962326931119258 1 
	26.699029281300529 -31.288932333072591 2.9246833200080857 0.99146012462364097 
	26.699029281300529 -31.146816392288219 3.137374855952606 0.99146012462364108 
	26.689444444444469 -30.978858223313765 3.3288582233137687 1 
	25.5766666666667 -31.40156508839701 2.6962326931119254 1 
	25.576666666666704 -31.303250512796609 2.9335850749053716 0.98719018693546157 
	25.576666666666704 -31.160519871603263 3.1471965750242785 0.98719018693546168 
	25.5766666666667 -30.978858223313768 3.3288582233137687 1 
	0 
	0 
	0 
	0 
	0 
	0 
	0 
	F 1 F 0 F 1 F 0 } I I I I 
	null_surface 
	nullbs 
	nullbs 
	-1 
	-1 
	I I 
	0 
	0 
	0 
	
	-1 
	none F F 1 F 0 } F 0 F 3.3383333333332992 
	0 
	3.3383333333332992 @4 EDGE 
	intcurve forward { exactcur 10 full nubs 3 open 2 
	3.3383333333332992 3 6.6766666666665975 3 
	28.914999999999999 -30.978858223313768 3.3288582233137691 
	30.027777777777768 -30.978858223313768 3.3288582233137691 
	31.14055555555554 -30.978858223313768 3.3288582233137691 
	32.253333333333302 -30.978858223313768 3.3288582233137691 
	0 
	spline reversed { exactsur 11 full nurbs 3 3 both open open none none 2 2 
	0.1963495408493619 3 0.77312520963017484 3 
	-3.3383333333333063 3 0 3 
	32.253333333333302 -31.40156508839701 2.6962326931119263 1 
	32.253333333333302 -31.303250512796609 2.933585074905372 0.98719018693546157 
	32.253333333333302 -31.160519871603263 3.147196575024279 0.98719018693546168 
	32.253333333333302 -30.978858223313768 3.3288582233137691 1 
	31.140555555555547 -31.401565088397014 2.6962326931119263 1 
	31.130970718699498 -31.288932333072591 2.9246833200080857 0.99146012462364097 
	31.130970718699484 -31.146816392288219 3.137374855952606 0.99146012462364108 
	31.140555555555547 -30.978858223313765 3.3288582233137687 1 
	30.027777777777768 -31.40156508839701 2.6962326931119263 1 
	30.018234043081506 -31.274736953166613 2.9158579109803591 0.99573006231182037 
	30.018234043081506 -31.133230440815307 3.127637372819998 0.9957300623118206 
	30.027777777777768 -30.978858223313765 3.3288582233137687 1 
	28.914999999999999 -31.40156508839701 2.6962326931119258 1 
	28.914999999999996 -31.260662800035934 2.9071078698458734 1 
	28.914999999999996 -31.119760511674848 3.1179830465798215 1 
	28.914999999999999 -30.978858223313768 3.3288582233137691 1 
	0 
	0 
	0 
	0 
	0 
	0 
	0 
	F 1 F 0 F 1 F 0 } I I I I 
	null_surface 
	nullbs 
	nullbs 
	-1 
	-1 
	I I 
	0 
	0 
	0 
	
	-1 
	none F F 1 F 0 } F 3.3383333333332992 F 6.6766666666665975 
	3.3383333333332992 
	6.6766666666665975 
	1 @49 (1*X+-0)O(MULTI_CURVEPERP(CUR(EDGE1),CUR(EDGE2))) 
	2 
	@4 EDGE 
	intcurve forward { ref 8 } F 0 F 3.3383333333332992 
	0 
	3.3383333333332992 @4 EDGE 
	intcurve forward { ref 10 } F 3.3383333333332992 F 6.6766666666665975 
	3.3383333333332992 
	6.6766666666665975 } F 0 F 6.6766666666665975 
	0 
	6.6766666666665975 @4 EDGE 
	intcurve forward { lawintcur 12 full nubs 3 open 5 
	6.6766666666665975 3 11.684166666666634 1 16.691666666666563 1 21.699166666666589 1 26.706666666666511 3 
	32.253333333333302 -30.978858223313768 3.3288582233137691 
	33.922500000000042 -30.978858223355278 3.3288582233194521 
	37.260833333344912 -30.978858223293013 3.3288582233109745 
	42.268333333327647 -30.978858223318959 3.3288582233144912 
	47.275833333320563 -30.97885822330753 3.3288582233098838 
	50.614166666686366 -30.978858223323652 3.3288582233211832 
	52.283333333333303 -30.978858223313768 3.3288582233137705 
	1.9682656262139835e-11 
	null_surface 
	null_surface 
	nullbs 
	nullbs 
	-1 
	-1 
	I I 
	0 
	5 10.01499999999999 13.353333333333278 16.691666666666563 20.029999999999951 23.368333333333229 
	0 
	
	-1 
	none F @133 (MULTI_CUR(PDOMAIN(CUR(EDGE1),0,13.35333333333336),PDOMAIN(CUR(EDGE2),13.35333333333336,20.02999999999992)))O(1*X+-6.676666666666601) 
	2 
	@4 EDGE 
	intcurve forward { lawintcur 13 full nubs 3 open 4 
	0 3 5.0075000000000394 1 10.014999999999972 1 13.35333333333336 3 
	32.253333333333302 -30.978858223313768 3.3288582233137691 
	33.922500000000042 -30.978858223355278 3.3288582233194521 
	37.260833333344912 -30.978858223293013 3.3288582233109745 
	41.711944444410847 -30.978858223296474 3.3288582233101733 
	44.493888888936297 -30.97885822334144 3.3288582233192061 
	45.606666666666698 -30.978858223313768 3.32885822331377 
	2.7898700304086894e-11 
	null_surface 
	null_surface 
	nullbs 
	nullbs 
	-1 
	-1 
	I I 
	0 
	3 3.3383333333333951 6.6766666666666836 10.014999999999972 
	0 
	
	-1 
	none F @116 (MULTI_CUR(PDOMAIN(CUR(EDGE1),0,10.01499999999997),PDOMAIN(CUR(EDGE2),10.01499999999997,13.35333333333336)))O(1*X+0) 
	2 
	@4 EDGE 
	intcurve forward { lawintcur 14 full nubs 3 open 3 
	0 3 5.0075000000000394 1 10.014999999999972 3 
	32.253333333333302 -30.978858223313768 3.3288582233137691 
	33.922499999968416 -30.978858223323652 3.3288582233135222 
	37.260833333343186 -30.978858223335511 3.3288582233133992 
	40.599166666678457 -30.978858223260399 3.3288582233147581 
	42.268333333333302 -30.978858223313768 3.3288582233137696 
	2.8695871147894717e-11 
	null_surface 
	null_surface 
	nullbs 
	nullbs 
	-1 
	-1 
	I I 
	0 
	2 3.3383333333333951 6.6766666666666836 
	0 
	
	-1 
	none F @116 (MULTI_CUR(PDOMAIN(CUR(EDGE1),0,3.338333333333395),PDOMAIN(CUR(EDGE2),3.338333333333395,10.01499999999997)))O(1*X+0) 
	2 
	@4 EDGE 
	intcurve forward { exactcur 15 full nubs 3 open 2 
	0 3 3.3383333333333951 3 
	32.253333333333302 -30.978858223313768 3.3288582233137691 
	33.366111111111096 -30.978858223313768 3.3288582233137696 
	34.478888888888896 -30.978858223313768 3.3288582233137696 
	35.591666666666697 -30.978858223313768 3.3288582233137696 
	0 
	spline reversed { exactsur 16 full nurbs 2 3 both open open none none 2 2 
	0.39269908169872381 2 0.7853981633974485 2 
	-3.3383333333333951 3 0 3 
	35.591666666666697 -31.40156508839701 2.6962326931119263 1 
	35.591666666666683 -31.253130176794013 3.0545862698335187 0.98078528040319257 
	35.591666666666697 -30.978858223313768 3.3288582233137696 1 
	34.478888888888896 -31.40156508839701 2.6962326931119263 1 
	34.478888888888896 -31.253130176794023 3.0545862698335187 0.98078528040319246 
	34.478888888888896 -30.978858223313765 3.3288582233137691 1 
	33.366111111111096 -31.40156508839701 2.6962326931119263 1 
	33.366111111111096 -31.253130176794023 3.0545862698335187 0.98078528040319246 
	33.366111111111096 -30.978858223313765 3.3288582233137691 1 
	32.253333333333302 -31.40156508839701 2.6962326931119263 1 
	32.253333333333302 -31.253130176794013 3.0545862698335182 0.98078528040319257 
	32.253333333333302 -30.978858223313768 3.3288582233137691 1 
	0 
	0 
	0 
	0 
	0 
	0 
	0 
	F 1 F 0 F 1 F 0 } I I I I 
	null_surface 
	nullbs 
	nullbs 
	-1 
	-1 
	I I 
	0 
	0 
	0 
	
	-1 
	none F F 1 F 0 } F 0 F 3.3383333333333951 
	0 
	3.3383333333333951 @4 EDGE 
	intcurve forward { lawintcur 17 full nubs 3 open 3 
	3.3383333333333951 3 6.6766666666666836 1 10.014999999999972 3 
	35.591666666666697 -30.978858223313768 3.3288582233137696 
	36.704444444433967 -30.97885822334144 3.3288582233164052 
	38.930000000022403 -30.978858223286096 3.3288582233111339 
	41.155555555521232 -30.97885822334144 3.3288582233164052 
	42.268333333333302 -30.978858223313768 3.3288582233137696 
	2.0698635860360165e-11 
	null_surface 
	null_surface 
	nullbs 
	nullbs 
	-1 
	-1 
	I I 
	0 
	1 6.6766666666666836 
	0 
	
	-1 
	none F @149 (MULTI_CUR(PDOMAIN(CUR(EDGE1),0,3.338333333333303),PDOMAIN(CUR(EDGE2),3.338333333333303,6.676666666666605)))O(1.000000000000004*X+-3.338333333333409) 
	2 
	@4 EDGE 
	intcurve forward { exactcur 18 full nubs 3 open 2 
	0 3 3.3383333333333027 3 
	35.591666666666697 -30.978858223313768 3.3288582233137696 
	36.704444444444462 -30.978858223313768 3.3288582233137696 
	37.817222222222227 -30.978858223313768 3.3288582233137696 
	38.93 -30.978858223313768 3.3288582233137696 
	0 
	spline reversed { exactsur 19 full nurbs 3 3 both open open none none 2 2 
	0.1963495408493619 3 0.77312520963017484 3 
	-3.3383333333333027 3 0 3 
	38.93 -31.40156508839701 2.6962326931119267 1 
	38.93 -31.260662800035934 2.9071078698458743 1 
	38.93 -31.119760511674848 3.1179830465798215 1 
	38.93 -30.978858223313768 3.3288582233137696 1 
	37.81722222222222 -31.40156508839701 2.6962326931119263 1 
	37.826765956918507 -31.274736953166613 2.9158579109803595 0.99573006231182037 
	37.826765956918507 -31.133230440815307 3.1276373728199984 0.9957300623118206 
	37.81722222222222 -30.978858223313765 3.3288582233137696 1 
	36.704444444444462 -31.401565088397014 2.6962326931119263 1 
	36.714029281300512 -31.288932333072591 2.9246833200080862 0.99146012462364097 
	36.714029281300526 -31.146816392288219 3.1373748559526065 0.99146012462364108 
	36.704444444444462 -30.978858223313765 3.3288582233137696 1 
	35.591666666666697 -31.40156508839701 2.6962326931119263 1 
	35.591666666666683 -31.303250512796609 2.9335850749053725 0.98719018693546157 
	35.591666666666697 -31.160519871603263 3.147196575024279 0.98719018693546168 
	35.591666666666697 -30.978858223313768 3.3288582233137696 1 
	0 
	0 
	0 
	0 
	0 
	0 
	0 
	F 1 F 0 F 1 F 0 } I I I I 
	null_surface 
	nullbs 
	nullbs 
	-1 
	-1 
	I I 
	0 
	0 
	0 
	
	-1 
	none F F 1 F 0 } F 0 F 3.3383333333333027 
	0 
	3.3383333333333027 @4 EDGE 
	intcurve forward { exactcur 20 full nubs 3 open 2 
	3.3383333333333027 3 6.6766666666666055 3 
	38.93 -30.978858223313768 3.3288582233137696 
	40.042777777777772 -30.978858223313768 3.3288582233137696 
	41.155555555555537 -30.978858223313768 3.3288582233137696 
	42.268333333333302 -30.978858223313768 3.3288582233137696 
	0 
	spline reversed { exactsur 21 full nurbs 3 3 both open open none none 2 2 
	0.1963495408493619 3 0.77312520963017484 3 
	-3.3383333333333027 3 0 3 
	42.268333333333302 -31.40156508839701 2.6962326931119267 1 
	42.268333333333302 -31.303250512796609 2.9335850749053725 0.98719018693546157 
	42.268333333333302 -31.160519871603263 3.1471965750242794 0.98719018693546168 
	42.268333333333302 -30.978858223313768 3.3288582233137696 1 
	41.155555555555544 -31.401565088397014 2.6962326931119267 1 
	41.145970718699502 -31.288932333072591 2.9246833200080866 0.99146012462364097 
	41.145970718699488 -31.146816392288219 3.1373748559526069 0.99146012462364108 
	41.155555555555544 -30.978858223313765 3.3288582233137696 1 
	40.042777777777779 -31.40156508839701 2.6962326931119267 1 
	40.033234043081528 -31.274736953166613 2.9158579109803595 0.99573006231182037 
	40.033234043081499 -31.133230440815307 3.1276373728199989 0.9957300623118206 
	40.042777777777779 -30.978858223313765 3.3288582233137696 1 
	38.93 -31.40156508839701 2.6962326931119267 1 
	38.93 -31.260662800035934 2.9071078698458743 1 
	38.93 -31.119760511674848 3.1179830465798215 1 
	38.93 -30.978858223313768 3.3288582233137696 1 
	0 
	0 
	0 
	0 
	0 
	0 
	0 
	F 1 F 0 F 1 F 0 } I I I I 
	null_surface 
	nullbs 
	nullbs 
	-1 
	-1 
	I I 
	0 
	0 
	0 
	
	-1 
	none F F 1 F 0 } F 3.3383333333333027 F 6.6766666666666055 
	3.3383333333333027 
	6.6766666666666055 
	1 @81 (0.9999999999999958*X+3.338333333333395)O(MULTI_CURVEPERP(CUR(EDGE1),CUR(EDGE2))) 
	2 
	@4 EDGE 
	intcurve forward { ref 18 } F 0 F 3.3383333333333027 
	0 
	3.3383333333333027 @4 EDGE 
	intcurve forward { ref 20 } F 3.3383333333333027 F 6.6766666666666055 
	3.3383333333333027 
	6.6766666666666055 } F 3.3383333333333951 F 10.014999999999972 
	3.3383333333333951 
	10.014999999999972 
	1 @49 (1*X+-0)O(MULTI_CURVEPERP(CUR(EDGE1),CUR(EDGE2))) 
	2 
	@4 EDGE 
	intcurve forward { ref 15 } F 0 F 3.3383333333333951 
	0 
	3.3383333333333951 @4 EDGE 
	intcurve forward { ref 17 } F 3.3383333333333951 F 10.014999999999972 
	3.3383333333333951 
	10.014999999999972 } F 0 F 10.014999999999972 
	0 
	10.014999999999972 @4 EDGE 
	intcurve forward { exactcur 22 full nubs 3 open 2 
	10.014999999999972 3 13.35333333333336 3 
	42.268333333333302 -30.978858223313768 3.3288582233137696 
	43.381111111111096 -30.978858223313768 3.32885822331377 
	44.493888888888897 -30.978858223313768 3.32885822331377 
	45.606666666666698 -30.978858223313768 3.32885822331377 
	0 
	spline reversed { exactsur 23 full nurbs 2 3 both open open none none 2 2 
	0.39269908169872381 2 0.7853981633974485 2 
	-3.3383333333333951 3 0 3 
	45.606666666666698 -31.40156508839701 2.6962326931119271 1 
	45.606666666666698 -31.253130176794013 3.0545862698335191 0.98078528040319257 
	45.606666666666698 -30.978858223313768 3.32885822331377 1 
	44.493888888888897 -31.40156508839701 2.6962326931119271 1 
	44.493888888888911 -31.253130176794023 3.0545862698335196 0.98078528040319246 
	44.493888888888897 -30.978858223313765 3.3288582233137696 1 
	43.381111111111096 -31.40156508839701 2.6962326931119267 1 
	43.38111111111111 -31.253130176794023 3.0545862698335196 0.98078528040319246 
	43.381111111111096 -30.978858223313765 3.3288582233137696 1 
	42.268333333333302 -31.40156508839701 2.6962326931119267 1 
	42.268333333333302 -31.253130176794013 3.0545862698335187 0.98078528040319257 
	42.268333333333302 -30.978858223313768 3.3288582233137696 1 
	0 
	0 
	0 
	0 
	0 
	0 
	0 
	F 1 F 0 F 1 F 0 } I I I I 
	null_surface 
	nullbs 
	nullbs 
	-1 
	-1 
	I I 
	0 
	0 
	0 
	
	-1 
	none F F 1 F 0 } F 10.014999999999972 F 13.35333333333336 
	10.014999999999972 
	13.35333333333336 
	1 @49 (1*X+-0)O(MULTI_CURVEPERP(CUR(EDGE1),CUR(EDGE2))) 
	2 
	@4 EDGE 
	intcurve forward { ref 14 } F 0 F 10.014999999999972 
	0 
	10.014999999999972 @4 EDGE 
	intcurve forward { ref 22 } F 10.014999999999972 F 13.35333333333336 
	10.014999999999972 
	13.35333333333336 } F 0 F 13.35333333333336 
	0 
	13.35333333333336 @4 EDGE 
	intcurve forward { lawintcur 24 full nubs 3 open 3 
	13.35333333333336 3 16.691666666666642 1 20.029999999999923 3 
	45.606666666666698 -30.978858223313768 3.32885822331377 
	46.719444444407607 -30.97885822334144 3.3288582233159114 
	48.945000000011859 -30.978858223286096 3.3288582233118764 
	51.170555555568669 -30.97885822334144 3.3288582233154176 
	52.283333333333303 -30.978858223313768 3.3288582233137705 
	2.2989285467413673e-11 
	null_surface 
	null_surface 
	nullbs 
	nullbs 
	-1 
	-1 
	I I 
	0 
	1 16.691666666666642 
	0 
	
	-1 
	none F @149 (MULTI_CUR(PDOMAIN(CUR(EDGE1),0,3.338333333333303),PDOMAIN(CUR(EDGE2),3.338333333333303,6.676666666666605)))O(1.000000000000006*X+-13.35333333333345) 
	2 
	@4 EDGE 
	intcurve forward { exactcur 25 full nubs 3 open 2 
	0 3 3.3383333333333027 3 
	45.606666666666698 -30.978858223313768 3.32885822331377 
	46.719444444444463 -30.978858223313768 3.32885822331377 
	47.832222222222228 -30.978858223313768 3.3288582233137705 
	48.945 -30.978858223313768 3.3288582233137705 
	0 
	spline reversed { exactsur 26 full nurbs 3 3 both open open none none 2 2 
	0.1963495408493619 3 0.77312520963017484 3 
	-3.3383333333333027 3 0 3 
	48.945 -31.40156508839701 2.6962326931119271 1 
	48.944999999999993 -31.260662800035934 2.9071078698458748 1 
	48.944999999999993 -31.119760511674848 3.1179830465798224 1 
	48.945 -30.978858223313768 3.3288582233137705 1 
	47.832222222222228 -31.40156508839701 2.6962326931119271 1 
	47.841765956918508 -31.274736953166613 2.91585791098036 0.99573006231182037 
	47.841765956918508 -31.133230440815307 3.1276373728199989 0.9957300623118206 
	47.832222222222228 -30.978858223313765 3.32885822331377 1 
	46.71944444444447 -31.401565088397014 2.6962326931119271 1 
	46.729029281300527 -31.288932333072591 2.9246833200080866 0.99146012462364097 
	46.729029281300527 -31.146816392288219 3.1373748559526069 0.99146012462364108 
	46.71944444444447 -30.978858223313765 3.3288582233137696 1 
	45.606666666666705 -31.40156508839701 2.6962326931119267 1 
	45.60666666666669 -31.303250512796609 2.9335850749053729 0.98719018693546157 
	45.606666666666705 -31.160519871603263 3.1471965750242799 0.98719018693546168 
	45.606666666666705 -30.978858223313768 3.32885822331377 1 
	0 
	0 
	0 
	0 
	0 
	0 
	0 
	F 1 F 0 F 1 F 0 } I I I I 
	null_surface 
	nullbs 
	nullbs 
	-1 
	-1 
	I I 
	0 
	0 
	0 
	
	-1 
	none F F 1 F 0 } F 0 F 3.3383333333333027 
	0 
	3.3383333333333027 @4 EDGE 
	intcurve forward { exactcur 27 full nubs 3 open 2 
	3.3383333333333027 3 6.6766666666666055 3 
	48.945 -30.978858223313768 3.3288582233137705 
	50.057777777777773 -30.978858223313768 3.3288582233137705 
	51.170555555555538 -30.978858223313768 3.3288582233137705 
	52.283333333333303 -30.978858223313768 3.3288582233137705 
	0 
	spline reversed { exactsur 28 full nurbs 3 3 both open open none none 2 2 
	0.1963495408493619 3 0.77312520963017484 3 
	-3.3383333333333027 3 0 3 
	52.283333333333296 -31.40156508839701 2.6962326931119271 1 
	52.283333333333275 -31.303250512796609 2.9335850749053733 0.98719018693546157 
	52.283333333333303 -31.160519871603263 3.1471965750242799 0.98719018693546168 
	52.283333333333296 -30.978858223313768 3.3288582233137705 1 
	51.170555555555538 -31.401565088397014 2.6962326931119271 1 
	51.160970718699467 -31.288932333072591 2.9246833200080871 0.99146012462364097 
	51.160970718699481 -31.146816392288219 3.1373748559526073 0.99146012462364108 
	51.170555555555538 -30.978858223313765 3.3288582233137705 1 
	50.057777777777773 -31.40156508839701 2.6962326931119271 1 
	50.048234043081521 -31.274736953166613 2.9158579109803604 0.99573006231182037 
	50.048234043081493 -31.133230440815307 3.1276373728199989 0.9957300623118206 
	50.057777777777773 -30.978858223313765 3.32885822331377 1 
	48.945 -31.40156508839701 2.6962326931119271 1 
	48.944999999999993 -31.260662800035934 2.9071078698458748 1 
	48.944999999999993 -31.119760511674848 3.1179830465798224 1 
	48.945 -30.978858223313768 3.3288582233137705 1 
	0 
	0 
	0 
	0 
	0 
	0 
	0 
	F 1 F 0 F 1 F 0 } I I I I 
	null_surface 
	nullbs 
	nullbs 
	-1 
	-1 
	I I 
	0 
	0 
	0 
	
	-1 
	none F F 1 F 0 } F 3.3383333333333027 F 6.6766666666666055 
	3.3383333333333027 
	6.6766666666666055 
	1 @81 (0.9999999999999936*X+13.35333333333336)O(MULTI_CURVEPERP(CUR(EDGE1),CUR(EDGE2))) 
	2 
	@4 EDGE 
	intcurve forward { ref 25 } F 0 F 3.3383333333333027 
	0 
	3.3383333333333027 @4 EDGE 
	intcurve forward { ref 27 } F 3.3383333333333027 F 6.6766666666666055 
	3.3383333333333027 
	6.6766666666666055 } F 13.35333333333336 F 20.029999999999923 
	13.35333333333336 
	20.029999999999923 
	1 @81 (0.9999999999999996*X+6.676666666666598)O(MULTI_CURVEPERP(CUR(EDGE1),CUR(EDGE2))) 
	2 
	@4 EDGE 
	intcurve forward { ref 13 } F 0 F 13.35333333333336 
	0 
	13.35333333333336 @4 EDGE 
	intcurve forward { ref 24 } F 13.35333333333336 F 20.029999999999923 
	13.35333333333336 
	20.029999999999923 } F 6.6766666666665975 F 26.706666666666511 
	6.6766666666665975 
	26.706666666666511 
	1 @38 MULTI_CURVEPERP(CUR(EDGE1),CUR(EDGE2)) 
	2 
	@4 EDGE 
	intcurve forward { ref 7 } F 0 F 6.6766666666665975 
	0 
	6.6766666666665975 @4 EDGE 
	intcurve forward { ref 12 } F 6.6766666666665975 F 26.706666666666511 
	6.6766666666665975 
	26.706666666666511 } I I #
-26 vertex $-1 -1 -1 $-1 $22 $32 #
-27 intcurve-curve $-1 -1 -1 $-1 forward { exactcur 29 full nubs 3 open 2 
	0 3 3.3383333333332992 3 
	25.5766666666667 -30.346232693111926 3.75156508839701 
	26.689444444444465 -30.346232693111926 3.75156508839701 
	27.80222222222223 -30.346232693111926 3.75156508839701 
	28.914999999999999 -30.346232693111926 3.75156508839701 
	0 
	spline reversed { ref 0 } I I I I 
	null_surface 
	nullbs 
	nullbs 
	-1 
	-1 
	I I 
	0 
	0 
	0 
	
	-1 
	none F F 1 F 0 } I I #
-28 point $-1 -1 -1 $-1 28.914999999999999 -30.978858223313768 3.3288582233137691 #
-29 point $-1 -1 -1 $-1 28.914999999999999 -30.346232693111926 3.75156508839701 #
-30 ellipse-curve $-1 -1 -1 $-1 25.5766666666667 -29.600000000000001 1.9500000000000015 -1 0 -6.123233995736766e-17 0 -1.9499999999999993 0 1 F 0.7853981633974485 F 1.1780972450961729 #
-31 point $-1 -1 -1 $-1 25.5766666666667 -30.978858223313768 3.3288582233137687 #
-32 point $-1 -1 -1 $-1 25.5766666666667 -30.346232693111926 3.75156508839701 #
End-of-ACIS-data 
